  0
SECTION
  2
HEADER
  9
$ACADVER
  1
AC1015
  9
$ACADMAINTVER
 70
     6
  9
$DWGCODEPAGE
  3
ANSI_1252
  9
$INSBASE
 10
0.0
 20
0.0
 30
0.0
  9
$EXTMIN
 10
41.6928652706
 20
-372.005254058
 30
0.0
  9
$EXTMAX
 10
867.2315550793
 20
554.758929353
 30
0.0
  9
$LIMMIN
 10
0.0
 20
0.0
  9
$LIMMAX
 10
420.0
 20
297.0
  9
$ORTHOMODE
 70
     0
  9
$REGENMODE
 70
     1
  9
$FILLMODE
 70
     1
  9
$QTEXTMODE
 70
     0
  9
$MIRRTEXT
 70
     1
  9
$LTSCALE
 40
1.0
  9
$ATTMODE
 70
     1
  9
$TEXTSIZE
 40
3.5
  9
$TRACEWID
 40
1.0
  9
$TEXTSTYLE
  7
Standard
  9
$CLAYER
  8
0
  9
$CELTYPE
  6
ByLayer
  9
$CECOLOR
 62
   256
  9
$CELTSCALE
 40
1.0
  9
$DISPSILH
 70
     0
  9
$DIMSCALE
 40
1.0
  9
$DIMASZ
 40
3.302
  9
$DIMEXO
 40
1.0
  9
$DIMDLI
 40
3.75
  9
$DIMRND
 40
0.0
  9
$DIMDLE
 40
0.0
  9
$DIMEXE
 40
1.0
  9
$DIMTP
 40
0.0
  9
$DIMTM
 40
0.0
  9
$DIMTXT
 40
3.5
  9
$DIMCEN
 40
2.5
  9
$DIMTSZ
 40
0.0
  9
$DIMTOL
 70
     0
  9
$DIMLIM
 70
     0
  9
$DIMTIH
 70
     1
  9
$DIMTOH
 70
     1
  9
$DIMSE1
 70
     0
  9
$DIMSE2
 70
     0
  9
$DIMTAD
 70
     1
  9
$DIMZIN
 70
     0
  9
$DIMBLK
  1

  9
$DIMASO
 70
     1
  9
$DIMSHO
 70
     1
  9
$DIMPOST
  1

  9
$DIMAPOST
  1

  9
$DIMALT
 70
     0
  9
$DIMALTD
 70
     3
  9
$DIMALTF
 40
0.0393700787
  9
$DIMLFAC
 40
1.0
  9
$DIMTOFL
 70
     1
  9
$DIMTVP
 40
0.0
  9
$DIMTIX
 70
     0
  9
$DIMSOXD
 70
     0
  9
$DIMSAH
 70
     0
  9
$DIMBLK1
  1

  9
$DIMBLK2
  1

  9
$DIMSTYLE
  2
ISO-25
  9
$DIMCLRD
 70
     0
  9
$DIMCLRE
 70
     0
  9
$DIMCLRT
 70
     0
  9
$DIMTFAC
 40
1.0
  9
$DIMGAP
 40
1.524
  9
$DIMJUST
 70
     0
  9
$DIMSD1
 70
     0
  9
$DIMSD2
 70
     0
  9
$DIMTOLJ
 70
     0
  9
$DIMTZIN
 70
     0
  9
$DIMALTZ
 70
     0
  9
$DIMALTTZ
 70
     0
  9
$DIMUPT
 70
     0
  9
$DIMDEC
 70
     3
  9
$DIMTDEC
 70
     3
  9
$DIMALTU
 70
     2
  9
$DIMALTTD
 70
     3
  9
$DIMTXSTY
  7
Standard
  9
$DIMAUNIT
 70
     0
  9
$DIMADEC
 70
     2
  9
$DIMALTRND
 40
0.0
  9
$DIMAZIN
 70
     0
  9
$DIMDSEP
 70
    44
  9
$DIMATFIT
 70
     3
  9
$DIMFRAC
 70
     0
  9
$DIMLDRBLK
  1

  9
$DIMLUNIT
 70
     2
  9
$DIMLWD
 70
    -2
  9
$DIMLWE
 70
    -2
  9
$DIMTMOVE
 70
     0
  9
$LUNITS
 70
     2
  9
$LUPREC
 70
     2
  9
$SKETCHINC
 40
1.0
  9
$FILLETRAD
 40
10.0
  9
$AUNITS
 70
     0
  9
$AUPREC
 70
     2
  9
$MENU
  1
.
  9
$ELEVATION
 40
0.0
  9
$PELEVATION
 40
0.0
  9
$THICKNESS
 40
0.0
  9
$LIMCHECK
 70
     0
  9
$CHAMFERA
 40
10.0
  9
$CHAMFERB
 40
10.0
  9
$CHAMFERC
 40
20.0
  9
$CHAMFERD
 40
0.0
  9
$SKPOLY
 70
     0
  9
$TDCREATE
 40
2458601.617675463
  9
$TDUCREATE
 40
2458601.326008796
  9
$TDUPDATE
 40
2458601.617675474
  9
$TDUUPDATE
 40
2458601.326008808
  9
$TDINDWG
 40
0.0000000116
  9
$TDUSRTIMER
 40
0.0000000116
  9
$USRTIMER
 70
     1
  9
$ANGBASE
 50
0.0
  9
$ANGDIR
 70
     0
  9
$PDMODE
 70
     0
  9
$PDSIZE
 40
-1.0
  9
$PLINEWID
 40
0.0
  9
$SPLFRAME
 70
     0
  9
$SPLINETYPE
 70
     6
  9
$SPLINESEGS
 70
     8
  9
$HANDSEED
  5
2B9
  9
$SURFTAB1
 70
     6
  9
$SURFTAB2
 70
     6
  9
$SURFTYPE
 70
     6
  9
$SURFU
 70
     6
  9
$SURFV
 70
     6
  9
$UCSBASE
  2

  9
$UCSNAME
  2

  9
$UCSORG
 10
0.0
 20
0.0
 30
0.0
  9
$UCSXDIR
 10
1.0
 20
0.0
 30
0.0
  9
$UCSYDIR
 10
0.0
 20
1.0
 30
0.0
  9
$UCSORTHOREF
  2

  9
$UCSORTHOVIEW
 70
     0
  9
$UCSORGTOP
 10
0.0
 20
0.0
 30
0.0
  9
$UCSORGBOTTOM
 10
0.0
 20
0.0
 30
0.0
  9
$UCSORGLEFT
 10
0.0
 20
0.0
 30
0.0
  9
$UCSORGRIGHT
 10
0.0
 20
0.0
 30
0.0
  9
$UCSORGFRONT
 10
0.0
 20
0.0
 30
0.0
  9
$UCSORGBACK
 10
0.0
 20
0.0
 30
0.0
  9
$PUCSBASE
  2

  9
$PUCSNAME
  2

  9
$PUCSORG
 10
0.0
 20
0.0
 30
0.0
  9
$PUCSXDIR
 10
1.0
 20
0.0
 30
0.0
  9
$PUCSYDIR
 10
0.0
 20
1.0
 30
0.0
  9
$PUCSORTHOREF
  2

  9
$PUCSORTHOVIEW
 70
     0
  9
$PUCSORGTOP
 10
0.0
 20
0.0
 30
0.0
  9
$PUCSORGBOTTOM
 10
0.0
 20
0.0
 30
0.0
  9
$PUCSORGLEFT
 10
0.0
 20
0.0
 30
0.0
  9
$PUCSORGRIGHT
 10
0.0
 20
0.0
 30
0.0
  9
$PUCSORGFRONT
 10
0.0
 20
0.0
 30
0.0
  9
$PUCSORGBACK
 10
0.0
 20
0.0
 30
0.0
  9
$USERI1
 70
     0
  9
$USERI2
 70
     0
  9
$USERI3
 70
     0
  9
$USERI4
 70
     0
  9
$USERI5
 70
     0
  9
$USERR1
 40
0.0
  9
$USERR2
 40
0.0
  9
$USERR3
 40
0.0
  9
$USERR4
 40
0.0
  9
$USERR5
 40
0.0
  9
$WORLDVIEW
 70
     1
  9
$SHADEDGE
 70
     3
  9
$SHADEDIF
 70
    70
  9
$TILEMODE
 70
     1
  9
$MAXACTVP
 70
    64
  9
$PINSBASE
 10
0.0
 20
0.0
 30
0.0
  9
$PLIMCHECK
 70
     0
  9
$PEXTMIN
 10
1.0000000000E+20
 20
1.0000000000E+20
 30
1.0000000000E+20
  9
$PEXTMAX
 10
-1.0000000000E+20
 20
-1.0000000000E+20
 30
-1.0000000000E+20
  9
$PLIMMIN
 10
0.0
 20
0.0
  9
$PLIMMAX
 10
420.0
 20
297.0
  9
$UNITMODE
 70
     0
  9
$VISRETAIN
 70
     1
  9
$PLINEGEN
 70
     0
  9
$PSLTSCALE
 70
     1
  9
$TREEDEPTH
 70
  3020
  9
$CMLSTYLE
  2
Standard
  9
$CMLJUST
 70
     0
  9
$CMLSCALE
 40
20.0
  9
$PROXYGRAPHICS
 70
     1
  9
$MEASUREMENT
 70
     1
  9
$CELWEIGHT
370
    -1
  9
$ENDCAPS
280
     0
  9
$JOINSTYLE
280
     0
  9
$LWDISPLAY
290
     1
  9
$INSUNITS
 70
     4
  9
$HYPERLINKBASE
  1

  9
$STYLESHEET
  1

  9
$XEDIT
290
     1
  9
$CEPSNTYPE
380
     0
  9
$PSTYLEMODE
290
     1
  9
$FINGERPRINTGUID
  2
{AEF0895D-1820-4554-8A49-CA826EB2770A}
  9
$VERSIONGUID
  2
{FAEB1C32-E019-11D5-929B-00C0DF256EC4}
  9
$EXTNAMES
290
     1
  9
$PSVPSCALE
 40
0.0
  9
$OLESTARTUP
290
     0
  0
ENDSEC
  0
SECTION
  2
CLASSES
  0
CLASS
  1
ACDBDICTIONARYWDFLT
  2
AcDbDictionaryWithDefault
  3
ObjectDBX Classes
 90
        0
280
     0
281
     0
  0
CLASS
  1
VISUALSTYLE
  2
AcDbVisualStyle
  3
ObjectDBX Classes
 90
     4095
280
     0
281
     0
  0
CLASS
  1
MATERIAL
  2
AcDbMaterial
  3
ObjectDBX Classes
 90
     1153
280
     0
281
     0
  0
CLASS
  1
ACDBPLACEHOLDER
  2
AcDbPlaceHolder
  3
ObjectDBX Classes
 90
        0
280
     0
281
     0
  0
CLASS
  1
LAYOUT
  2
AcDbLayout
  3
ObjectDBX Classes
 90
        0
280
     0
281
     0
  0
ENDSEC
  0
SECTION
  2
TABLES
  0
TABLE
  2
VPORT
  5
8
330
0
100
AcDbSymbolTable
 70
     1
  0
VPORT
  5
29
330
8
100
AcDbSymbolTableRecord
100
AcDbViewportTableRecord
  2
*Active
 70
     0
 10
0.0
 20
0.0
 11
1.0
 21
1.0
 12
454.462210175
 22
91.3768376475
 13
0.0
 23
0.0
 14
10.0
 24
10.0
 15
10.0
 25
10.0
 16
0.0
 26
0.0
 36
1.0
 17
0.0
 27
0.0
 37
0.0
 40
945.2994670792
 41
0.89077535
 42
50.0
 43
0.0
 44
0.0
 50
0.0
 51
0.0
 71
     0
 72
   100
 73
     1
 74
     3
 75
     0
 76
     0
 77
     0
 78
     0
281
     0
 65
     1
110
0.0
120
0.0
130
0.0
111
1.0
121
0.0
131
0.0
112
0.0
122
1.0
132
0.0
 79
     0
146
0.0
  0
ENDTAB
  0
TABLE
  2
LTYPE
  5
5
330
0
100
AcDbSymbolTable
 70
     6
  0
LTYPE
  5
14
330
5
100
AcDbSymbolTableRecord
100
AcDbLinetypeTableRecord
  2
ByBlock
 70
     0
  3

 72
    65
 73
     0
 40
0.0
  0
LTYPE
  5
15
330
5
100
AcDbSymbolTableRecord
100
AcDbLinetypeTableRecord
  2
ByLayer
 70
     0
  3

 72
    65
 73
     0
 40
0.0
  0
LTYPE
  5
16
330
5
100
AcDbSymbolTableRecord
100
AcDbLinetypeTableRecord
  2
Continuous
 70
     0
  3
Solid line
 72
    65
 73
     0
 40
0.0
  0
LTYPE
  5
3F
330
5
100
AcDbSymbolTableRecord
100
AcDbLinetypeTableRecord
  2
HIDDEN
 70
     0
  3
Hidden __ __ __ __ __ __ __ __ __ __ __ __ __ __
 72
    65
 73
     2
 40
1.905
 49
1.27
 74
     0
 49
-0.635
 74
     0
  0
LTYPE
  5
40
330
5
100
AcDbSymbolTableRecord
100
AcDbLinetypeTableRecord
  2
PHANTOM
 70
     0
  3
Phantom ______  __  __  ______  __  __  ______
 72
    65
 73
     6
 40
12.7
 49
6.35
 74
     0
 49
-1.27
 74
     0
 49
1.27
 74
     0
 49
-1.27
 74
     0
 49
1.27
 74
     0
 49
-1.27
 74
     0
  0
LTYPE
  5
41
330
5
100
AcDbSymbolTableRecord
100
AcDbLinetypeTableRecord
  2
CENTER
 70
     0
  3
Center ____ _ ____ _ ____ _ ____ _ ____ _ ____
 72
    65
 73
     4
 40
10.16
 49
6.35
 74
     0
 49
-1.27
 74
     0
 49
1.27
 74
     0
 49
-1.27
 74
     0
  0
LTYPE
  5
42
330
5
100
AcDbSymbolTableRecord
100
AcDbLinetypeTableRecord
  2
CENTERX2
 70
     0
  3
Center (2x) ________  __  ________  __  _____
 72
    65
 73
     4
 40
20.32
 49
12.7
 74
     0
 49
-2.54
 74
     0
 49
2.54
 74
     0
 49
-2.54
 74
     0
  0
LTYPE
  5
43
330
5
100
AcDbSymbolTableRecord
100
AcDbLinetypeTableRecord
  2
DOT2
 70
     0
  3
Dot (.5x) ........................................
 72
    65
 73
     2
 40
0.635
 49
0.0
 74
     0
 49
-0.635
 74
     0
  0
ENDTAB
  0
TABLE
  2
LAYER
  5
2
330
0
100
AcDbSymbolTable
 70
     1
  0
LAYER
  5
10
330
2
100
AcDbSymbolTableRecord
100
AcDbLayerTableRecord
  2
0
 70
     0
 62
     7
  6
Continuous
370
    -3
390
F
  0
ENDTAB
  0
TABLE
  2
STYLE
  5
3
330
0
100
AcDbSymbolTable
 70
     1
  0
STYLE
  5
11
330
3
100
AcDbSymbolTableRecord
100
AcDbTextStyleTableRecord
  2
Standard
 70
     0
 40
0.0
 41
1.0
 50
0.0
 71
     0
 42
2.5
  3
txt
  4

  0
ENDTAB
  0
TABLE
  2
VIEW
  5
6
330
0
100
AcDbSymbolTable
 70
     0
  0
ENDTAB
  0
TABLE
  2
UCS
  5
7
330
0
100
AcDbSymbolTable
 70
     0
  0
ENDTAB
  0
TABLE
  2
APPID
  5
9
330
0
100
AcDbSymbolTable
 70
     1
  0
APPID
  5
12
330
9
100
AcDbSymbolTableRecord
100
AcDbRegAppTableRecord
  2
ACAD
 70
     0
  0
ENDTAB
  0
TABLE
  2
DIMSTYLE
  5
A
330
0
100
AcDbSymbolTable
 70
     1
100
AcDbDimStyleTable
  0
DIMSTYLE
105
27
330
A
100
AcDbSymbolTableRecord
100
AcDbDimStyleTableRecord
  2
ISO-25
 70
     0
 41
2.5
 42
0.625
 43
3.75
 44
1.25
 73
     0
 74
     0
 77
     1
 78
     8
140
2.5
141
2.5
143
0.0393700787
147
0.625
171
     3
172
     1
271
     2
272
     2
274
     3
278
    44
283
     0
284
     8
340
11
  0
ENDTAB
  0
TABLE
  2
BLOCK_RECORD
  5
1
330
0
100
AcDbSymbolTable
 70
     1
  0
BLOCK_RECORD
  5
1F
330
1
100
AcDbSymbolTableRecord
100
AcDbBlockTableRecord
  2
*Model_Space
340
22
  0
BLOCK_RECORD
  5
1B
330
1
100
AcDbSymbolTableRecord
100
AcDbBlockTableRecord
  2
*Paper_Space
340
1E
  0
BLOCK_RECORD
  5
23
330
1
100
AcDbSymbolTableRecord
100
AcDbBlockTableRecord
  2
*Paper_Space0
340
26
  0
ENDTAB
  0
ENDSEC
  0
SECTION
  2
BLOCKS
  0
BLOCK
  5
20
330
1F
100
AcDbEntity
  8
0
100
AcDbBlockBegin
  2
*Model_Space
 70
     0
 10
0.0
 20
0.0
 30
0.0
  3
*Model_Space
  1

  0
ENDBLK
  5
21
330
1F
100
AcDbEntity
  8
0
100
AcDbBlockEnd
  0
BLOCK
  5
1C
330
1B
100
AcDbEntity
 67
     1
  8
0
100
AcDbBlockBegin
  2
*Paper_Space
 70
     0
 10
0.0
 20
0.0
 30
0.0
  3
*Paper_Space
  1

  0
ENDBLK
  5
1D
330
1B
100
AcDbEntity
 67
     1
  8
0
100
AcDbBlockEnd
  0
BLOCK
  5
24
330
23
100
AcDbEntity
  8
0
100
AcDbBlockBegin
  2
*Paper_Space0
 70
     0
 10
0.0
 20
0.0
 30
0.0
  3
*Paper_Space0
  1

  0
ENDBLK
  5
25
330
23
100
AcDbEntity
  8
0
100
AcDbBlockEnd
  0
ENDSEC
  0
SECTION
  2
ENTITIES
  0
CIRCLE
  5
44
330
1F
100
AcDbEntity
  8
0
  6
Continuous
 62
     7
100
AcDbCircle
 10
668.3326424898
 20
191.7611101575
 30
0.0
 40
6.00000000000014
  0
CIRCLE
  5
45
330
1F
100
AcDbEntity
  8
0
  6
Continuous
 62
     7
100
AcDbCircle
 10
216.9390047843
 20
-300.005254058
 30
0.0
 40
6.049999999999987
  0
CIRCLE
  5
46
330
1F
100
AcDbEntity
  8
0
  6
Continuous
 62
     7
100
AcDbCircle
 10
574.659492873
 20
-6.4318500283
 30
0.0
 40
2.499999999999897
  0
CIRCLE
  5
47
330
1F
100
AcDbEntity
  8
0
  6
Continuous
 62
     7
100
AcDbCircle
 10
687.1141297141
 20
345.7439975066
 30
0.0
 40
2.499999999999903
  0
CIRCLE
  5
48
330
1F
100
AcDbEntity
  8
0
  6
Continuous
 62
     7
100
AcDbCircle
 10
600.6141297141
 20
335.7439975066
 30
0.0
 40
2.499999999999886
  0
LINE
  5
49
330
1F
100
AcDbEntity
  8
0
  6
Continuous
 62
     7
100
AcDbLine
 10
48.4626775332
 20
539.2093384903
 30
0.0
 11
56.4626775332
 21
539.2093384903
 31
0.0
  0
LINE
  5
4A
330
1F
100
AcDbEntity
  8
0
  6
Continuous
 62
     7
100
AcDbLine
 10
43.4626775332
 20
509.2093384903
 30
0.0
 11
43.4626775332
 21
435.2093384903
 31
0.0
  0
LINE
  5
4B
330
1F
100
AcDbEntity
  8
0
  6
Continuous
 62
     7
100
AcDbLine
 10
43.4626775332
 20
415.2093384903
 30
0.0
 11
43.4626775332
 21
395.2093384903
 31
0.0
  0
LINE
  5
4C
330
1F
100
AcDbEntity
  8
0
  6
Continuous
 62
     7
100
AcDbLine
 10
48.4626775332
 20
390.2093384903
 30
0.0
 11
88.4626775332
 21
390.2093384903
 31
0.0
  0
LINE
  5
4D
330
1F
100
AcDbEntity
  8
0
  6
Continuous
 62
     7
100
AcDbLine
 10
406.4626775332
 20
539.2093384903
 30
0.0
 11
414.4626775332
 21
539.2093384903
 31
0.0
  0
LINE
  5
4E
330
1F
100
AcDbEntity
  8
0
  6
Continuous
 62
     7
100
AcDbLine
 10
419.4626775333
 20
509.2093384903
 30
0.0
 11
419.4626775333
 21
435.2093384906
 31
0.0
  0
LINE
  5
4F
330
1F
100
AcDbEntity
  8
0
  6
Continuous
 62
     7
100
AcDbLine
 10
419.4626775333
 20
415.2093384906
 30
0.0
 11
419.4626775333
 21
395.2093384906
 31
0.0
  0
LINE
  5
50
330
1F
100
AcDbEntity
  8
0
  6
Continuous
 62
     7
100
AcDbLine
 10
56.4626775332
 20
545.2093384903
 30
0.0
 11
406.4626775332
 21
545.2093384903
 31
0.0
  0
LINE
  5
51
330
1F
100
AcDbEntity
  8
0
  6
Continuous
 62
     7
100
AcDbLine
 10
56.4626775332
 20
545.2093384903
 30
0.0
 11
56.4626775332
 21
539.2093384903
 31
0.0
  0
LINE
  5
52
330
1F
100
AcDbEntity
  8
0
  6
Continuous
 62
     7
100
AcDbLine
 10
88.4626775332
 20
395.2093384903
 30
0.0
 11
118.4626775332
 21
395.2093384903
 31
0.0
  0
LINE
  5
53
330
1F
100
AcDbEntity
  8
0
  6
Continuous
 62
     7
100
AcDbLine
 10
406.4626775332
 20
545.2093384903
 30
0.0
 11
406.4626775332
 21
539.2093384903
 31
0.0
  0
LINE
  5
54
330
1F
100
AcDbEntity
  8
0
  6
Continuous
 62
     7
100
AcDbLine
 10
43.4626775332
 20
395.2093384903
 30
0.0
 11
48.4626775332
 21
395.2093384903
 31
0.0
  0
LINE
  5
55
330
1F
100
AcDbEntity
  8
0
  6
Continuous
 62
     7
100
AcDbLine
 10
118.4626775332
 20
390.2093384903
 30
0.0
 11
166.4626775332
 21
390.2093384903
 31
0.0
  0
LINE
  5
56
330
1F
100
AcDbEntity
  8
0
  6
Continuous
 62
     7
100
AcDbLine
 10
166.4626775332
 20
395.2093384906
 30
0.0
 11
171.4626775332
 21
395.2093384906
 31
0.0
  0
LINE
  5
57
330
1F
100
AcDbEntity
  8
0
  6
Continuous
 62
     7
100
AcDbLine
 10
48.4626775332
 20
395.2093384903
 30
0.0
 11
48.4626775332
 21
390.2093384903
 31
0.0
  0
LINE
  5
58
330
1F
100
AcDbEntity
  8
0
  6
Continuous
 62
     7
100
AcDbLine
 10
171.4626775332
 20
390.2093384906
 30
0.0
 11
218.4626775332
 21
390.2093384906
 31
0.0
  0
LINE
  5
59
330
1F
100
AcDbEntity
  8
0
  6
Continuous
 62
     7
100
AcDbLine
 10
419.4626775333
 20
395.2093384906
 30
0.0
 11
414.4626775333
 21
395.2093384906
 31
0.0
  0
LINE
  5
5A
330
1F
100
AcDbEntity
  8
0
  6
Continuous
 62
     7
100
AcDbLine
 10
218.4626775332
 20
395.2093384906
 30
0.0
 11
258.4626775332
 21
395.2093384906
 31
0.0
  0
LINE
  5
5B
330
1F
100
AcDbEntity
  8
0
  6
Continuous
 62
     7
100
AcDbLine
 10
258.4626775332
 20
390.2093384906
 30
0.0
 11
306.4626775332
 21
390.2093384906
 31
0.0
  0
LINE
  5
5C
330
1F
100
AcDbEntity
  8
0
  6
Continuous
 62
     7
100
AcDbLine
 10
311.4626775332
 20
390.2093384906
 30
0.0
 11
356.4626775333
 21
390.2093384906
 31
0.0
  0
LINE
  5
5D
330
1F
100
AcDbEntity
  8
0
  6
Continuous
 62
     7
100
AcDbLine
 10
414.4626775333
 20
395.2093384906
 30
0.0
 11
414.4626775333
 21
390.2093384906
 31
0.0
  0
LINE
  5
5E
330
1F
100
AcDbEntity
  8
0
  6
Continuous
 62
     7
100
AcDbLine
 10
56.4626775332
 20
545.2093384903
 30
0.0
 11
406.4626775332
 21
545.2093384903
 31
0.0
  0
LINE
  5
5F
330
1F
100
AcDbEntity
  8
0
  6
Continuous
 62
     7
100
AcDbLine
 10
56.4626775332
 20
545.2093384903
 30
0.0
 11
56.4626775332
 21
539.2093384903
 31
0.0
  0
LINE
  5
60
330
1F
100
AcDbEntity
  8
0
  6
Continuous
 62
     7
100
AcDbLine
 10
386.4626775333
 20
390.2093384906
 30
0.0
 11
414.4626775333
 21
390.2093384906
 31
0.0
  0
LINE
  5
61
330
1F
100
AcDbEntity
  8
0
  6
Continuous
 62
     7
100
AcDbLine
 10
406.4626775332
 20
545.2093384903
 30
0.0
 11
406.4626775332
 21
539.2093384903
 31
0.0
  0
LINE
  5
62
330
1F
100
AcDbEntity
  8
0
  6
Continuous
 62
     7
100
AcDbLine
 10
166.4626775332
 20
539.2093384903
 30
0.0
 11
171.4626775332
 21
539.2093384903
 31
0.0
  0
LINE
  5
63
330
1F
100
AcDbEntity
  8
0
  6
Continuous
 62
     7
100
AcDbLine
 10
88.4626775332
 20
395.2093384903
 30
0.0
 11
88.4626775332
 21
390.2093384903
 31
0.0
  0
LINE
  5
64
330
1F
100
AcDbEntity
  8
0
  6
Continuous
 62
     7
100
AcDbLine
 10
43.4626775332
 20
509.2093384903
 30
0.0
 11
48.4626775332
 21
509.2093384903
 31
0.0
  0
LINE
  5
65
330
1F
100
AcDbEntity
  8
0
  6
Continuous
 62
     7
100
AcDbLine
 10
48.4626775332
 20
539.2093384903
 30
0.0
 11
48.4626775332
 21
509.2093384903
 31
0.0
  0
LINE
  5
66
330
1F
100
AcDbEntity
  8
0
  6
Continuous
 62
     7
100
AcDbLine
 10
43.4626775332
 20
435.2093384903
 30
0.0
 11
48.4626775332
 21
435.2093384903
 31
0.0
  0
LINE
  5
67
330
1F
100
AcDbEntity
  8
0
  6
Continuous
 62
     7
100
AcDbLine
 10
43.4626775332
 20
415.2093384903
 30
0.0
 11
48.4626775332
 21
415.2093384903
 31
0.0
  0
LINE
  5
68
330
1F
100
AcDbEntity
  8
0
  6
Continuous
 62
     7
100
AcDbLine
 10
48.4626775332
 20
435.2093384903
 30
0.0
 11
48.4626775332
 21
415.2093384903
 31
0.0
  0
LINE
  5
69
330
1F
100
AcDbEntity
  8
0
  6
Continuous
 62
     7
100
AcDbLine
 10
166.4626775332
 20
539.2093384903
 30
0.0
 11
171.4626775332
 21
539.2093384903
 31
0.0
  0
LINE
  5
6A
330
1F
100
AcDbEntity
  8
0
  6
Continuous
 62
     7
100
AcDbLine
 10
166.4626775332
 20
539.2093384903
 30
0.0
 11
166.4626775332
 21
509.2093384903
 31
0.0
  0
LINE
  5
6B
330
1F
100
AcDbEntity
  8
0
  6
Continuous
 62
     7
100
AcDbLine
 10
166.4626775332
 20
509.2093384903
 30
0.0
 11
171.4626775332
 21
509.2093384903
 31
0.0
  0
LINE
  5
6C
330
1F
100
AcDbEntity
  8
0
  6
Continuous
 62
     7
100
AcDbLine
 10
171.4626775332
 20
539.2093384903
 30
0.0
 11
171.4626775332
 21
509.2093384903
 31
0.0
  0
LINE
  5
6D
330
1F
100
AcDbEntity
  8
0
  6
Continuous
 62
     7
100
AcDbLine
 10
166.4626775332
 20
435.2093384903
 30
0.0
 11
171.4626775332
 21
435.2093384903
 31
0.0
  0
LINE
  5
6E
330
1F
100
AcDbEntity
  8
0
  6
Continuous
 62
     7
100
AcDbLine
 10
166.4626775332
 20
435.2093384903
 30
0.0
 11
166.4626775332
 21
415.2093384903
 31
0.0
  0
LINE
  5
6F
330
1F
100
AcDbEntity
  8
0
  6
Continuous
 62
     7
100
AcDbLine
 10
166.4626775332
 20
415.2093384903
 30
0.0
 11
171.4626775332
 21
415.2093384903
 31
0.0
  0
LINE
  5
70
330
1F
100
AcDbEntity
  8
0
  6
Continuous
 62
     7
100
AcDbLine
 10
171.4626775332
 20
435.2093384903
 30
0.0
 11
171.4626775332
 21
415.2093384903
 31
0.0
  0
LINE
  5
71
330
1F
100
AcDbEntity
  8
0
  6
Continuous
 62
     7
100
AcDbLine
 10
166.4626775332
 20
395.2093384906
 30
0.0
 11
166.4626775332
 21
390.2093384903
 31
0.0
  0
LINE
  5
72
330
1F
100
AcDbEntity
  8
0
  6
Continuous
 62
     7
100
AcDbLine
 10
171.4626775332
 20
395.2093384906
 30
0.0
 11
171.4626775332
 21
390.2093384906
 31
0.0
  0
LINE
  5
73
330
1F
100
AcDbEntity
  8
0
  6
Continuous
 62
     7
100
AcDbLine
 10
306.4626775332
 20
509.2093384903
 30
0.0
 11
311.4626775332
 21
509.2093384903
 31
0.0
  0
LINE
  5
74
330
1F
100
AcDbEntity
  8
0
  6
Continuous
 62
     7
100
AcDbLine
 10
306.4626775332
 20
509.2093384903
 30
0.0
 11
306.4626775332
 21
489.2093384903
 31
0.0
  0
LINE
  5
75
330
1F
100
AcDbEntity
  8
0
  6
Continuous
 62
     7
100
AcDbLine
 10
306.4626775332
 20
489.2093384903
 30
0.0
 11
311.4626775332
 21
489.2093384903
 31
0.0
  0
LINE
  5
76
330
1F
100
AcDbEntity
  8
0
  6
Continuous
 62
     7
100
AcDbLine
 10
311.4626775332
 20
509.2093384903
 30
0.0
 11
311.4626775332
 21
489.2093384903
 31
0.0
  0
LINE
  5
77
330
1F
100
AcDbEntity
  8
0
  6
Continuous
 62
     7
100
AcDbLine
 10
306.4626775332
 20
435.2093384903
 30
0.0
 11
311.4626775332
 21
435.2093384903
 31
0.0
  0
LINE
  5
78
330
1F
100
AcDbEntity
  8
0
  6
Continuous
 62
     7
100
AcDbLine
 10
306.4626775332
 20
435.2093384903
 30
0.0
 11
306.4626775332
 21
415.2093384903
 31
0.0
  0
LINE
  5
79
330
1F
100
AcDbEntity
  8
0
  6
Continuous
 62
     7
100
AcDbLine
 10
306.4626775332
 20
415.2093384903
 30
0.0
 11
311.4626775332
 21
415.2093384903
 31
0.0
  0
LINE
  5
7A
330
1F
100
AcDbEntity
  8
0
  6
Continuous
 62
     7
100
AcDbLine
 10
311.4626775332
 20
435.2093384903
 30
0.0
 11
311.4626775332
 21
415.2093384903
 31
0.0
  0
LINE
  5
7B
330
1F
100
AcDbEntity
  8
0
  6
Continuous
 62
     7
100
AcDbLine
 10
306.4626775332
 20
395.2093384906
 30
0.0
 11
311.4626775332
 21
395.2093384906
 31
0.0
  0
LINE
  5
7C
330
1F
100
AcDbEntity
  8
0
  6
Continuous
 62
     7
100
AcDbLine
 10
306.4626775332
 20
395.2093384906
 30
0.0
 11
306.4626775332
 21
390.2093384906
 31
0.0
  0
LINE
  5
7D
330
1F
100
AcDbEntity
  8
0
  6
Continuous
 62
     7
100
AcDbLine
 10
311.4626775332
 20
395.2093384906
 30
0.0
 11
311.4626775332
 21
390.2093384906
 31
0.0
  0
LINE
  5
7E
330
1F
100
AcDbEntity
  8
0
  6
Continuous
 62
     7
100
AcDbLine
 10
414.4626775332
 20
539.2093384903
 30
0.0
 11
414.4626775332
 21
509.2093384903
 31
0.0
  0
LINE
  5
7F
330
1F
100
AcDbEntity
  8
0
  6
Continuous
 62
     7
100
AcDbLine
 10
414.4626775332
 20
509.2093384903
 30
0.0
 11
419.4626775333
 21
509.2093384903
 31
0.0
  0
LINE
  5
80
330
1F
100
AcDbEntity
  8
0
  6
Continuous
 62
     7
100
AcDbLine
 10
414.4626775333
 20
435.2093384906
 30
0.0
 11
419.4626775333
 21
435.2093384906
 31
0.0
  0
LINE
  5
81
330
1F
100
AcDbEntity
  8
0
  6
Continuous
 62
     7
100
AcDbLine
 10
414.4626775333
 20
435.2093384906
 30
0.0
 11
414.4626775333
 21
415.2093384906
 31
0.0
  0
LINE
  5
82
330
1F
100
AcDbEntity
  8
0
  6
Continuous
 62
     7
100
AcDbLine
 10
414.4626775333
 20
415.2093384906
 30
0.0
 11
419.4626775333
 21
415.2093384906
 31
0.0
  0
LINE
  5
83
330
1F
100
AcDbEntity
  8
0
  6
Continuous
 62
     7
100
AcDbLine
 10
218.4626775332
 20
395.2093384906
 30
0.0
 11
218.4626775332
 21
390.2093384906
 31
0.0
  0
LINE
  5
84
330
1F
100
AcDbEntity
  8
0
  6
Continuous
 62
     7
100
AcDbLine
 10
88.4626775332
 20
395.2093384903
 30
0.0
 11
88.4626775332
 21
390.2093384903
 31
0.0
  0
LINE
  5
85
330
1F
100
AcDbEntity
  8
0
  6
Continuous
 62
     7
100
AcDbLine
 10
118.4626775332
 20
395.2093384903
 30
0.0
 11
118.4626775332
 21
390.2093384903
 31
0.0
  0
LINE
  5
86
330
1F
100
AcDbEntity
  8
0
  6
Continuous
 62
     7
100
AcDbLine
 10
386.4626775333
 20
395.2093384906
 30
0.0
 11
386.4626775333
 21
390.2093384906
 31
0.0
  0
LINE
  5
87
330
1F
100
AcDbEntity
  8
0
  6
Continuous
 62
     7
100
AcDbLine
 10
218.4626775332
 20
395.2093384906
 30
0.0
 11
218.4626775332
 21
390.2093384906
 31
0.0
  0
LINE
  5
88
330
1F
100
AcDbEntity
  8
0
  6
Continuous
 62
     7
100
AcDbLine
 10
59.4176706271
 20
347.9910954762
 30
0.0
 11
67.4176706271
 21
347.9910954762
 31
0.0
  0
LINE
  5
89
330
1F
100
AcDbEntity
  8
0
  6
Continuous
 62
     7
100
AcDbLine
 10
258.4626775332
 20
395.2093384906
 30
0.0
 11
258.4626775332
 21
390.2093384906
 31
0.0
  0
LINE
  5
8A
330
1F
100
AcDbEntity
  8
0
  6
Continuous
 62
     7
100
AcDbLine
 10
386.4626775333
 20
395.2093384906
 30
0.0
 11
356.4626775333
 21
395.2093384906
 31
0.0
  0
LINE
  5
8B
330
1F
100
AcDbEntity
  8
0
  6
Continuous
 62
     7
100
AcDbLine
 10
386.4626775333
 20
395.2093384906
 30
0.0
 11
386.4626775333
 21
390.2093384906
 31
0.0
  0
LINE
  5
8C
330
1F
100
AcDbEntity
  8
0
  6
Continuous
 62
     7
100
AcDbLine
 10
54.4176706271
 20
317.9910954762
 30
0.0
 11
54.4176706271
 21
243.9910954762
 31
0.0
  0
LINE
  5
8D
330
1F
100
AcDbEntity
  8
0
  6
Continuous
 62
     7
100
AcDbLine
 10
356.4626775333
 20
395.2093384906
 30
0.0
 11
356.4626775333
 21
390.2093384906
 31
0.0
  0
LINE
  5
8E
330
1F
100
AcDbEntity
  8
0
  6
Continuous
 62
     7
100
AcDbLine
 10
54.4176706271
 20
223.9910954762
 30
0.0
 11
54.4176706271
 21
203.9910954762
 31
0.0
  0
LINE
  5
8F
330
1F
100
AcDbEntity
  8
0
  6
Continuous
 62
     7
100
AcDbLine
 10
59.4176706271
 20
198.9910954762
 30
0.0
 11
99.4176706271
 21
198.9910954762
 31
0.0
  0
LINE
  5
90
330
1F
100
AcDbEntity
  8
0
  6
Continuous
 62
     7
100
AcDbLine
 10
417.4176706271
 20
347.9910954762
 30
0.0
 11
425.4176706271
 21
347.9910954762
 31
0.0
  0
LINE
  5
91
330
1F
100
AcDbEntity
  8
0
  6
Continuous
 62
     7
100
AcDbLine
 10
430.4176706271
 20
317.9910954762
 30
0.0
 11
430.4176706271
 21
243.9910954764
 31
0.0
  0
LINE
  5
92
330
1F
100
AcDbEntity
  8
0
  6
Continuous
 62
     7
100
AcDbLine
 10
430.4176706271
 20
223.9910954764
 30
0.0
 11
430.4176706271
 21
203.9910954764
 31
0.0
  0
LINE
  5
93
330
1F
100
AcDbEntity
  8
0
  6
Continuous
 62
     7
100
AcDbLine
 10
67.4176706271
 20
353.9910954762
 30
0.0
 11
417.4176706271
 21
353.9910954762
 31
0.0
  0
LINE
  5
94
330
1F
100
AcDbEntity
  8
0
  6
Continuous
 62
     7
100
AcDbLine
 10
67.4176706271
 20
353.9910954762
 30
0.0
 11
67.4176706271
 21
347.9910954762
 31
0.0
  0
LINE
  5
95
330
1F
100
AcDbEntity
  8
0
  6
Continuous
 62
     7
100
AcDbLine
 10
99.4176706271
 20
203.9910954762
 30
0.0
 11
129.4176706271
 21
203.9910954762
 31
0.0
  0
LINE
  5
96
330
1F
100
AcDbEntity
  8
0
  6
Continuous
 62
     7
100
AcDbLine
 10
417.4176706271
 20
353.9910954762
 30
0.0
 11
417.4176706271
 21
347.9910954762
 31
0.0
  0
LINE
  5
97
330
1F
100
AcDbEntity
  8
0
  6
Continuous
 62
     7
100
AcDbLine
 10
54.4176706271
 20
203.9910954762
 30
0.0
 11
59.4176706271
 21
203.9910954762
 31
0.0
  0
LINE
  5
98
330
1F
100
AcDbEntity
  8
0
  6
Continuous
 62
     7
100
AcDbLine
 10
129.4176706271
 20
198.9910954762
 30
0.0
 11
177.4176706271
 21
198.9910954762
 31
0.0
  0
LINE
  5
99
330
1F
100
AcDbEntity
  8
0
  6
Continuous
 62
     7
100
AcDbLine
 10
177.4176706271
 20
203.9910954764
 30
0.0
 11
182.4176706271
 21
203.9910954764
 31
0.0
  0
LINE
  5
9A
330
1F
100
AcDbEntity
  8
0
  6
Continuous
 62
     7
100
AcDbLine
 10
59.4176706271
 20
203.9910954762
 30
0.0
 11
59.4176706271
 21
198.9910954762
 31
0.0
  0
LINE
  5
9B
330
1F
100
AcDbEntity
  8
0
  6
Continuous
 62
     7
100
AcDbLine
 10
182.4176706271
 20
198.9910954764
 30
0.0
 11
229.4176706271
 21
198.9910954764
 31
0.0
  0
LINE
  5
9C
330
1F
100
AcDbEntity
  8
0
  6
Continuous
 62
     7
100
AcDbLine
 10
430.4176706271
 20
203.9910954764
 30
0.0
 11
425.4176706271
 21
203.9910954764
 31
0.0
  0
LINE
  5
9D
330
1F
100
AcDbEntity
  8
0
  6
Continuous
 62
     7
100
AcDbLine
 10
229.4176706271
 20
203.9910954764
 30
0.0
 11
269.4176706271
 21
203.9910954764
 31
0.0
  0
LINE
  5
9E
330
1F
100
AcDbEntity
  8
0
  6
Continuous
 62
     7
100
AcDbLine
 10
269.4176706271
 20
198.9910954764
 30
0.0
 11
317.4176706271
 21
198.9910954764
 31
0.0
  0
LINE
  5
9F
330
1F
100
AcDbEntity
  8
0
  6
Continuous
 62
     7
100
AcDbLine
 10
322.4176706271
 20
198.9910954764
 30
0.0
 11
367.4176706271
 21
198.9910954764
 31
0.0
  0
LINE
  5
A0
330
1F
100
AcDbEntity
  8
0
  6
Continuous
 62
     7
100
AcDbLine
 10
425.4176706271
 20
203.9910954764
 30
0.0
 11
425.4176706271
 21
198.9910954764
 31
0.0
  0
LINE
  5
A1
330
1F
100
AcDbEntity
  8
0
  6
Continuous
 62
     7
100
AcDbLine
 10
67.4176706271
 20
353.9910954762
 30
0.0
 11
417.4176706271
 21
353.9910954762
 31
0.0
  0
LINE
  5
A2
330
1F
100
AcDbEntity
  8
0
  6
Continuous
 62
     7
100
AcDbLine
 10
67.4176706271
 20
353.9910954762
 30
0.0
 11
67.4176706271
 21
347.9910954762
 31
0.0
  0
LINE
  5
A3
330
1F
100
AcDbEntity
  8
0
  6
Continuous
 62
     7
100
AcDbLine
 10
397.4176706271
 20
198.9910954764
 30
0.0
 11
425.4176706271
 21
198.9910954764
 31
0.0
  0
LINE
  5
A4
330
1F
100
AcDbEntity
  8
0
  6
Continuous
 62
     7
100
AcDbLine
 10
417.4176706271
 20
353.9910954762
 30
0.0
 11
417.4176706271
 21
347.9910954762
 31
0.0
  0
LINE
  5
A5
330
1F
100
AcDbEntity
  8
0
  6
Continuous
 62
     7
100
AcDbLine
 10
177.4176706271
 20
347.9910954762
 30
0.0
 11
182.4176706271
 21
347.9910954762
 31
0.0
  0
LINE
  5
A6
330
1F
100
AcDbEntity
  8
0
  6
Continuous
 62
     7
100
AcDbLine
 10
99.4176706271
 20
203.9910954762
 30
0.0
 11
99.4176706271
 21
198.9910954762
 31
0.0
  0
LINE
  5
A7
330
1F
100
AcDbEntity
  8
0
  6
Continuous
 62
     7
100
AcDbLine
 10
54.4176706271
 20
317.9910954762
 30
0.0
 11
59.4176706271
 21
317.9910954762
 31
0.0
  0
LINE
  5
A8
330
1F
100
AcDbEntity
  8
0
  6
Continuous
 62
     7
100
AcDbLine
 10
59.4176706271
 20
347.9910954762
 30
0.0
 11
59.4176706271
 21
317.9910954762
 31
0.0
  0
LINE
  5
A9
330
1F
100
AcDbEntity
  8
0
  6
Continuous
 62
     7
100
AcDbLine
 10
54.4176706271
 20
243.9910954762
 30
0.0
 11
59.4176706271
 21
243.9910954762
 31
0.0
  0
LINE
  5
AA
330
1F
100
AcDbEntity
  8
0
  6
Continuous
 62
     7
100
AcDbLine
 10
54.4176706271
 20
223.9910954762
 30
0.0
 11
59.4176706271
 21
223.9910954762
 31
0.0
  0
LINE
  5
AB
330
1F
100
AcDbEntity
  8
0
  6
Continuous
 62
     7
100
AcDbLine
 10
59.4176706271
 20
243.9910954762
 30
0.0
 11
59.4176706271
 21
223.9910954762
 31
0.0
  0
LINE
  5
AC
330
1F
100
AcDbEntity
  8
0
  6
Continuous
 62
     7
100
AcDbLine
 10
177.4176706271
 20
347.9910954762
 30
0.0
 11
182.4176706271
 21
347.9910954762
 31
0.0
  0
LINE
  5
AD
330
1F
100
AcDbEntity
  8
0
  6
Continuous
 62
     7
100
AcDbLine
 10
177.4176706271
 20
347.9910954762
 30
0.0
 11
177.4176706271
 21
317.9910954762
 31
0.0
  0
LINE
  5
AE
330
1F
100
AcDbEntity
  8
0
  6
Continuous
 62
     7
100
AcDbLine
 10
177.4176706271
 20
317.9910954762
 30
0.0
 11
182.4176706271
 21
317.9910954762
 31
0.0
  0
LINE
  5
AF
330
1F
100
AcDbEntity
  8
0
  6
Continuous
 62
     7
100
AcDbLine
 10
182.4176706271
 20
347.9910954762
 30
0.0
 11
182.4176706271
 21
317.9910954762
 31
0.0
  0
LINE
  5
B0
330
1F
100
AcDbEntity
  8
0
  6
Continuous
 62
     7
100
AcDbLine
 10
177.4176706271
 20
243.9910954762
 30
0.0
 11
182.4176706271
 21
243.9910954762
 31
0.0
  0
LINE
  5
B1
330
1F
100
AcDbEntity
  8
0
  6
Continuous
 62
     7
100
AcDbLine
 10
177.4176706271
 20
243.9910954762
 30
0.0
 11
177.4176706271
 21
223.9910954762
 31
0.0
  0
LINE
  5
B2
330
1F
100
AcDbEntity
  8
0
  6
Continuous
 62
     7
100
AcDbLine
 10
177.4176706271
 20
223.9910954762
 30
0.0
 11
182.4176706271
 21
223.9910954762
 31
0.0
  0
LINE
  5
B3
330
1F
100
AcDbEntity
  8
0
  6
Continuous
 62
     7
100
AcDbLine
 10
182.4176706271
 20
243.9910954762
 30
0.0
 11
182.4176706271
 21
223.9910954762
 31
0.0
  0
LINE
  5
B4
330
1F
100
AcDbEntity
  8
0
  6
Continuous
 62
     7
100
AcDbLine
 10
177.4176706271
 20
203.9910954764
 30
0.0
 11
177.4176706271
 21
198.9910954762
 31
0.0
  0
LINE
  5
B5
330
1F
100
AcDbEntity
  8
0
  6
Continuous
 62
     7
100
AcDbLine
 10
182.4176706271
 20
203.9910954764
 30
0.0
 11
182.4176706271
 21
198.9910954764
 31
0.0
  0
LINE
  5
B6
330
1F
100
AcDbEntity
  8
0
  6
Continuous
 62
     7
100
AcDbLine
 10
317.4176706271
 20
317.9910954762
 30
0.0
 11
322.4176706271
 21
317.9910954762
 31
0.0
  0
LINE
  5
B7
330
1F
100
AcDbEntity
  8
0
  6
Continuous
 62
     7
100
AcDbLine
 10
317.4176706271
 20
317.9910954762
 30
0.0
 11
317.4176706271
 21
297.9910954762
 31
0.0
  0
LINE
  5
B8
330
1F
100
AcDbEntity
  8
0
  6
Continuous
 62
     7
100
AcDbLine
 10
317.4176706271
 20
297.9910954762
 30
0.0
 11
322.4176706271
 21
297.9910954762
 31
0.0
  0
LINE
  5
B9
330
1F
100
AcDbEntity
  8
0
  6
Continuous
 62
     7
100
AcDbLine
 10
322.4176706271
 20
317.9910954762
 30
0.0
 11
322.4176706271
 21
297.9910954762
 31
0.0
  0
LINE
  5
BA
330
1F
100
AcDbEntity
  8
0
  6
Continuous
 62
     7
100
AcDbLine
 10
317.4176706271
 20
243.9910954762
 30
0.0
 11
322.4176706271
 21
243.9910954762
 31
0.0
  0
LINE
  5
BB
330
1F
100
AcDbEntity
  8
0
  6
Continuous
 62
     7
100
AcDbLine
 10
317.4176706271
 20
243.9910954762
 30
0.0
 11
317.4176706271
 21
223.9910954762
 31
0.0
  0
LINE
  5
BC
330
1F
100
AcDbEntity
  8
0
  6
Continuous
 62
     7
100
AcDbLine
 10
317.4176706271
 20
223.9910954762
 30
0.0
 11
322.4176706271
 21
223.9910954762
 31
0.0
  0
LINE
  5
BD
330
1F
100
AcDbEntity
  8
0
  6
Continuous
 62
     7
100
AcDbLine
 10
322.4176706271
 20
243.9910954762
 30
0.0
 11
322.4176706271
 21
223.9910954762
 31
0.0
  0
LINE
  5
BE
330
1F
100
AcDbEntity
  8
0
  6
Continuous
 62
     7
100
AcDbLine
 10
317.4176706271
 20
203.9910954764
 30
0.0
 11
322.4176706271
 21
203.9910954764
 31
0.0
  0
LINE
  5
BF
330
1F
100
AcDbEntity
  8
0
  6
Continuous
 62
     7
100
AcDbLine
 10
317.4176706271
 20
203.9910954764
 30
0.0
 11
317.4176706271
 21
198.9910954764
 31
0.0
  0
LINE
  5
C0
330
1F
100
AcDbEntity
  8
0
  6
Continuous
 62
     7
100
AcDbLine
 10
322.4176706271
 20
203.9910954764
 30
0.0
 11
322.4176706271
 21
198.9910954764
 31
0.0
  0
LINE
  5
C1
330
1F
100
AcDbEntity
  8
0
  6
Continuous
 62
     7
100
AcDbLine
 10
425.4176706271
 20
347.9910954762
 30
0.0
 11
425.4176706271
 21
317.9910954762
 31
0.0
  0
LINE
  5
C2
330
1F
100
AcDbEntity
  8
0
  6
Continuous
 62
     7
100
AcDbLine
 10
425.4176706271
 20
317.9910954762
 30
0.0
 11
430.4176706271
 21
317.9910954762
 31
0.0
  0
LINE
  5
C3
330
1F
100
AcDbEntity
  8
0
  6
Continuous
 62
     7
100
AcDbLine
 10
425.4176706271
 20
243.9910954764
 30
0.0
 11
430.4176706271
 21
243.9910954764
 31
0.0
  0
LINE
  5
C4
330
1F
100
AcDbEntity
  8
0
  6
Continuous
 62
     7
100
AcDbLine
 10
425.4176706271
 20
243.9910954764
 30
0.0
 11
425.4176706271
 21
223.9910954764
 31
0.0
  0
LINE
  5
C5
330
1F
100
AcDbEntity
  8
0
  6
Continuous
 62
     7
100
AcDbLine
 10
425.4176706271
 20
223.9910954764
 30
0.0
 11
430.4176706271
 21
223.9910954764
 31
0.0
  0
LINE
  5
C6
330
1F
100
AcDbEntity
  8
0
  6
Continuous
 62
     7
100
AcDbLine
 10
229.4176706271
 20
203.9910954764
 30
0.0
 11
229.4176706271
 21
198.9910954764
 31
0.0
  0
LINE
  5
C7
330
1F
100
AcDbEntity
  8
0
  6
Continuous
 62
     7
100
AcDbLine
 10
99.4176706271
 20
203.9910954762
 30
0.0
 11
99.4176706271
 21
198.9910954762
 31
0.0
  0
LINE
  5
C8
330
1F
100
AcDbEntity
  8
0
  6
Continuous
 62
     7
100
AcDbLine
 10
129.4176706271
 20
203.9910954762
 30
0.0
 11
129.4176706271
 21
198.9910954762
 31
0.0
  0
LINE
  5
C9
330
1F
100
AcDbEntity
  8
0
  6
Continuous
 62
     7
100
AcDbLine
 10
397.4176706271
 20
203.9910954764
 30
0.0
 11
397.4176706271
 21
198.9910954764
 31
0.0
  0
LINE
  5
CA
330
1F
100
AcDbEntity
  8
0
  6
Continuous
 62
     7
100
AcDbLine
 10
229.4176706271
 20
203.9910954764
 30
0.0
 11
229.4176706271
 21
198.9910954764
 31
0.0
  0
LINE
  5
CB
330
1F
100
AcDbEntity
  8
0
  6
Continuous
 62
     7
100
AcDbLine
 10
269.4176706271
 20
203.9910954764
 30
0.0
 11
269.4176706271
 21
198.9910954764
 31
0.0
  0
LINE
  5
CC
330
1F
100
AcDbEntity
  8
0
  6
Continuous
 62
     7
100
AcDbLine
 10
397.4176706271
 20
203.9910954764
 30
0.0
 11
367.4176706271
 21
203.9910954764
 31
0.0
  0
LINE
  5
CD
330
1F
100
AcDbEntity
  8
0
  6
Continuous
 62
     7
100
AcDbLine
 10
397.4176706271
 20
203.9910954764
 30
0.0
 11
397.4176706271
 21
198.9910954764
 31
0.0
  0
LINE
  5
CE
330
1F
100
AcDbEntity
  8
0
  6
Continuous
 62
     7
100
AcDbLine
 10
367.4176706271
 20
203.9910954764
 30
0.0
 11
367.4176706271
 21
198.9910954764
 31
0.0
  0
LINE
  5
CF
330
1F
100
AcDbEntity
  8
0
  6
Continuous
 62
     7
100
AcDbLine
 10
304.6928652706
 20
-107.236125579
 30
0.0
 11
304.6928652706
 21
-112.236125579
 31
0.0
  0
LINE
  5
D0
330
1F
100
AcDbEntity
  8
0
  6
Continuous
 62
     7
100
AcDbLine
 10
46.6928652706
 20
173.7638744211
 30
0.0
 11
46.6928652706
 21
168.7638744211
 31
0.0
  0
LINE
  5
D1
330
1F
100
AcDbEntity
  8
0
  6
Continuous
 62
     7
100
AcDbLine
 10
46.6928652706
 20
168.7638744211
 30
0.0
 11
86.6928652706
 21
168.7638744211
 31
0.0
  0
LINE
  5
D2
330
1F
100
AcDbEntity
  8
0
  6
Continuous
 62
     7
100
AcDbLine
 10
116.6928652706
 20
168.7638744211
 30
0.0
 11
164.6928652706
 21
168.7638744211
 31
0.0
  0
LINE
  5
D3
330
1F
100
AcDbEntity
  8
0
  6
Continuous
 62
     7
100
AcDbLine
 10
169.6928652707
 20
168.7638744212
 30
0.0
 11
216.6928652707
 21
168.7638744212
 31
0.0
  0
LINE
  5
D4
330
1F
100
AcDbEntity
  8
0
  6
Continuous
 62
     7
100
AcDbLine
 10
256.6928652707
 20
168.7638744212
 30
0.0
 11
304.6928652707
 21
168.7638744212
 31
0.0
  0
LINE
  5
D5
330
1F
100
AcDbEntity
  8
0
  6
Continuous
 62
     7
100
AcDbLine
 10
41.6928652706
 20
173.7638744211
 30
0.0
 11
41.6928652706
 21
168.7638744211
 31
0.0
  0
LINE
  5
D6
330
1F
100
AcDbEntity
  8
0
  6
Continuous
 62
     7
100
AcDbLine
 10
309.6928652707
 20
168.7638744212
 30
0.0
 11
354.6928652707
 21
168.7638744212
 31
0.0
  0
LINE
  5
D7
330
1F
100
AcDbEntity
  8
0
  6
Continuous
 62
     7
100
AcDbLine
 10
417.6928652706
 20
173.763874421
 30
0.0
 11
417.6928652706
 21
168.7638744212
 31
0.0
  0
LINE
  5
D8
330
1F
100
AcDbEntity
  8
0
  6
Continuous
 62
     7
100
AcDbLine
 10
417.6928652706
 20
173.763874421
 30
0.0
 11
412.6928652707
 21
173.763874421
 31
0.0
  0
LINE
  5
D9
330
1F
100
AcDbEntity
  8
0
  6
Continuous
 62
     7
100
AcDbLine
 10
417.6928652706
 20
173.763874421
 30
0.0
 11
417.6928652706
 21
168.7638744212
 31
0.0
  0
LINE
  5
DA
330
1F
100
AcDbEntity
  8
0
  6
Continuous
 62
     7
100
AcDbLine
 10
354.6928652707
 20
173.7638744212
 30
0.0
 11
384.6928652707
 21
173.7638744212
 31
0.0
  0
LINE
  5
DB
330
1F
100
AcDbEntity
  8
0
  6
Continuous
 62
     7
100
AcDbLine
 10
384.6928652707
 20
168.7638744212
 30
0.0
 11
412.6928652707
 21
168.7638744212
 31
0.0
  0
LINE
  5
DC
330
1F
100
AcDbEntity
  8
0
  6
Continuous
 62
     7
100
AcDbLine
 10
412.6928652707
 20
173.763874421
 30
0.0
 11
417.6928652706
 21
173.763874421
 31
0.0
  0
LINE
  5
DD
330
1F
100
AcDbEntity
  8
0
  6
Continuous
 62
     7
100
AcDbLine
 10
412.6928652707
 20
168.7638744212
 30
0.0
 11
412.6928652707
 21
173.763874421
 31
0.0
  0
LINE
  5
DE
330
1F
100
AcDbEntity
  8
0
  6
Continuous
 62
     7
100
AcDbLine
 10
412.6928652706
 20
-112.236125579
 30
0.0
 11
417.6928652706
 21
-112.236125579
 31
0.0
  0
LINE
  5
DF
330
1F
100
AcDbEntity
  8
0
  6
Continuous
 62
     7
100
AcDbLine
 10
417.6928652706
 20
168.7638744212
 30
0.0
 11
417.6928652706
 21
108.763874421
 31
0.0
  0
LINE
  5
E0
330
1F
100
AcDbEntity
  8
0
  6
Continuous
 62
     7
100
AcDbLine
 10
417.6928652706
 20
78.763874421
 30
0.0
 11
417.6928652706
 21
-17.236125579
 31
0.0
  0
LINE
  5
E1
330
1F
100
AcDbEntity
  8
0
  6
Continuous
 62
     7
100
AcDbLine
 10
417.6928652706
 20
-112.236125579
 30
0.0
 11
417.6928652706
 21
-107.236125579
 31
0.0
  0
LINE
  5
E2
330
1F
100
AcDbEntity
  8
0
  6
Continuous
 62
     7
100
AcDbLine
 10
417.6928652706
 20
-47.236125579
 30
0.0
 11
417.6928652706
 21
-107.236125579
 31
0.0
  0
LINE
  5
E3
330
1F
100
AcDbEntity
  8
0
  6
Continuous
 62
     7
100
AcDbLine
 10
41.6928652706
 20
-112.2361255789
 30
0.0
 11
41.6928652706
 21
-107.2361255789
 31
0.0
  0
LINE
  5
E4
330
1F
100
AcDbEntity
  8
0
  6
Continuous
 62
     7
100
AcDbLine
 10
41.6928652706
 20
-112.2361255789
 30
0.0
 11
46.6928652706
 21
-112.2361255789
 31
0.0
  0
LINE
  5
E5
330
1F
100
AcDbEntity
  8
0
  6
Continuous
 62
     7
100
AcDbLine
 10
412.6928652706
 20
-112.236125579
 30
0.0
 11
412.6928652706
 21
-107.236125579
 31
0.0
  0
LINE
  5
E6
330
1F
100
AcDbEntity
  8
0
  6
Continuous
 62
     7
100
AcDbLine
 10
41.6928652706
 20
173.7638744211
 30
0.0
 11
46.6928652706
 21
173.7638744211
 31
0.0
  0
LINE
  5
E7
330
1F
100
AcDbEntity
  8
0
  6
Continuous
 62
     7
100
AcDbLine
 10
412.6928652706
 20
-107.236125579
 30
0.0
 11
384.6928652706
 21
-107.236125579
 31
0.0
  0
LINE
  5
E8
330
1F
100
AcDbEntity
  8
0
  6
Continuous
 62
     7
100
AcDbLine
 10
384.6928652706
 20
-107.236125579
 30
0.0
 11
385.1666019113
 21
-107.7083204211
 31
0.0
  0
LINE
  5
E9
330
1F
100
AcDbEntity
  8
0
  6
Continuous
 62
     7
100
AcDbLine
 10
354.6928652707
 20
173.7638744212
 30
0.0
 11
354.6928652707
 21
168.7638744212
 31
0.0
  0
LINE
  5
EA
330
1F
100
AcDbEntity
  8
0
  6
Continuous
 62
     7
100
AcDbLine
 10
384.6928652707
 20
173.7638744212
 30
0.0
 11
384.6928652707
 21
168.7638744212
 31
0.0
  0
LINE
  5
EB
330
1F
100
AcDbEntity
  8
0
  6
Continuous
 62
     7
100
AcDbLine
 10
164.6928652706
 20
173.7638744212
 30
0.0
 11
169.6928652707
 21
173.7638744212
 31
0.0
  0
LINE
  5
EC
330
1F
100
AcDbEntity
  8
0
  6
Continuous
 62
     7
100
AcDbLine
 10
164.6928652706
 20
-112.2361255789
 30
0.0
 11
169.6928652706
 21
-112.2361255789
 31
0.0
  0
LINE
  5
ED
330
1F
100
AcDbEntity
  8
0
  6
Continuous
 62
     7
100
AcDbLine
 10
216.6928652707
 20
173.7638744212
 30
0.0
 11
256.6928652707
 21
173.7638744212
 31
0.0
  0
LINE
  5
EE
330
1F
100
AcDbEntity
  8
0
  6
Continuous
 62
     7
100
AcDbLine
 10
304.6928652707
 20
173.7638744212
 30
0.0
 11
309.6928652707
 21
173.7638744212
 31
0.0
  0
LINE
  5
EF
330
1F
100
AcDbEntity
  8
0
  6
Continuous
 62
     7
100
AcDbLine
 10
304.6928652706
 20
-112.236125579
 30
0.0
 11
309.6928652706
 21
-112.236125579
 31
0.0
  0
LINE
  5
F0
330
1F
100
AcDbEntity
  8
0
  6
Continuous
 62
     7
100
AcDbLine
 10
354.6928652706
 20
-107.236125579
 30
0.0
 11
309.6928652706
 21
-107.236125579
 31
0.0
  0
LINE
  5
F1
330
1F
100
AcDbEntity
  8
0
  6
Continuous
 62
     7
100
AcDbLine
 10
216.6928652707
 20
173.7638744212
 30
0.0
 11
216.6928652707
 21
168.7638744212
 31
0.0
  0
LINE
  5
F2
330
1F
100
AcDbEntity
  8
0
  6
Continuous
 62
     7
100
AcDbLine
 10
256.6928652707
 20
173.7638744212
 30
0.0
 11
256.6928652707
 21
168.7638744212
 31
0.0
  0
LINE
  5
F3
330
1F
100
AcDbEntity
  8
0
  6
Continuous
 62
     7
100
AcDbLine
 10
86.6928652706
 20
173.7638744211
 30
0.0
 11
116.6928652706
 21
173.7638744211
 31
0.0
  0
LINE
  5
F4
330
1F
100
AcDbEntity
  8
0
  6
Continuous
 62
     7
100
AcDbLine
 10
86.6928652706
 20
173.7638744211
 30
0.0
 11
86.6928652706
 21
168.7638744211
 31
0.0
  0
LINE
  5
F5
330
1F
100
AcDbEntity
  8
0
  6
Continuous
 62
     7
100
AcDbLine
 10
116.6928652706
 20
173.7638744211
 30
0.0
 11
116.6928652706
 21
168.7638744211
 31
0.0
  0
LINE
  5
F6
330
1F
100
AcDbEntity
  8
0
  6
Continuous
 62
     7
100
AcDbLine
 10
309.6928652706
 20
-107.236125579
 30
0.0
 11
309.6928652706
 21
-112.236125579
 31
0.0
  0
LINE
  5
F7
330
1F
100
AcDbEntity
  8
0
  6
Continuous
 62
     7
100
AcDbLine
 10
354.6928652706
 20
-112.236125579
 30
0.0
 11
384.6928652706
 21
-112.236125579
 31
0.0
  0
LINE
  5
F8
330
1F
100
AcDbEntity
  8
0
  6
Continuous
 62
     7
100
AcDbLine
 10
304.6928652706
 20
-107.236125579
 30
0.0
 11
256.6928652706
 21
-107.236125579
 31
0.0
  0
LINE
  5
F9
330
1F
100
AcDbEntity
  8
0
  6
Continuous
 62
     7
100
AcDbLine
 10
216.6928652706
 20
-112.236125579
 30
0.0
 11
256.6928652706
 21
-112.236125579
 31
0.0
  0
LINE
  5
FA
330
1F
100
AcDbEntity
  8
0
  6
Continuous
 62
     7
100
AcDbLine
 10
216.6928652706
 20
60.7638744211
 30
0.0
 11
256.6928652706
 21
60.7638744211
 31
0.0
  0
LINE
  5
FB
330
1F
100
AcDbEntity
  8
0
  6
Continuous
 62
     7
100
AcDbLine
 10
86.6928652706
 20
173.7638744211
 30
0.0
 11
116.6928652706
 21
173.7638744211
 31
0.0
  0
LINE
  5
FC
330
1F
100
AcDbEntity
  8
0
  6
Continuous
 62
     7
100
AcDbLine
 10
86.6928652706
 20
-112.2361255789
 30
0.0
 11
116.6928652706
 21
-112.2361255789
 31
0.0
  0
LINE
  5
FD
330
1F
100
AcDbEntity
  8
0
  6
Continuous
 62
     7
100
AcDbLine
 10
216.6928652706
 20
60.7638744211
 30
0.0
 11
256.6928652706
 21
60.7638744211
 31
0.0
  0
LINE
  5
FE
330
1F
100
AcDbEntity
  8
0
  6
Continuous
 62
     7
100
AcDbLine
 10
216.6928652706
 20
60.7638744211
 30
0.0
 11
216.6928652706
 21
65.7638744211
 31
0.0
  0
LINE
  5
FF
330
1F
100
AcDbEntity
  8
0
  6
Continuous
 62
     7
100
AcDbLine
 10
216.6928652706
 20
-107.236125579
 30
0.0
 11
169.6928652706
 21
-107.236125579
 31
0.0
  0
LINE
  5
100
330
1F
100
AcDbEntity
  8
0
  6
Continuous
 62
     7
100
AcDbLine
 10
216.6928652706
 20
65.7638744211
 30
0.0
 11
256.6928652706
 21
65.7638744211
 31
0.0
  0
LINE
  5
101
330
1F
100
AcDbEntity
  8
0
  6
Continuous
 62
     7
100
AcDbLine
 10
164.6928652706
 20
-107.2361255789
 30
0.0
 11
116.6928652706
 21
-107.2361255789
 31
0.0
  0
LINE
  5
102
330
1F
100
AcDbEntity
  8
0
  6
Continuous
 62
     7
100
AcDbLine
 10
256.6928652706
 20
60.7638744211
 30
0.0
 11
256.6928652706
 21
65.7638744211
 31
0.0
  0
LINE
  5
103
330
1F
100
AcDbEntity
  8
0
  6
Continuous
 62
     7
100
AcDbLine
 10
116.6928652706
 20
-107.2361255789
 30
0.0
 11
117.1157208758
 21
-107.1520844241
 31
0.0
  0
LINE
  5
104
330
1F
100
AcDbEntity
  8
0
  6
Continuous
 62
     7
100
AcDbLine
 10
86.6928652706
 20
-107.2361255789
 30
0.0
 11
46.6928652706
 21
-107.2361255789
 31
0.0
  0
LINE
  5
105
330
1F
100
AcDbEntity
  8
0
  6
Continuous
 62
     7
100
AcDbLine
 10
86.6928652706
 20
173.7638744211
 30
0.0
 11
116.6928652706
 21
173.7638744211
 31
0.0
  0
LINE
  5
106
330
1F
100
AcDbEntity
  8
0
  6
Continuous
 62
     7
100
AcDbLine
 10
86.6928652706
 20
173.7638744211
 30
0.0
 11
86.6928652706
 21
168.7638744211
 31
0.0
  0
LINE
  5
107
330
1F
100
AcDbEntity
  8
0
  6
Continuous
 62
     7
100
AcDbLine
 10
116.6928652706
 20
173.7638744211
 30
0.0
 11
116.6928652706
 21
168.7638744211
 31
0.0
  0
LINE
  5
108
330
1F
100
AcDbEntity
  8
0
  6
Continuous
 62
     7
100
AcDbLine
 10
164.6928652706
 20
173.7638744212
 30
0.0
 11
169.6928652707
 21
173.7638744212
 31
0.0
  0
LINE
  5
109
330
1F
100
AcDbEntity
  8
0
  6
Continuous
 62
     7
100
AcDbLine
 10
164.6928652706
 20
173.7638744212
 30
0.0
 11
164.6928652706
 21
168.7638744211
 31
0.0
  0
LINE
  5
10A
330
1F
100
AcDbEntity
  8
0
  6
Continuous
 62
     7
100
AcDbLine
 10
169.6928652707
 20
173.7638744212
 30
0.0
 11
169.6928652707
 21
168.7638744212
 31
0.0
  0
LINE
  5
10B
330
1F
100
AcDbEntity
  8
0
  6
Continuous
 62
     7
100
AcDbLine
 10
216.6928652707
 20
173.7638744212
 30
0.0
 11
256.6928652707
 21
173.7638744212
 31
0.0
  0
LINE
  5
10C
330
1F
100
AcDbEntity
  8
0
  6
Continuous
 62
     7
100
AcDbLine
 10
216.6928652707
 20
173.7638744212
 30
0.0
 11
216.6928652707
 21
168.7638744212
 31
0.0
  0
LINE
  5
10D
330
1F
100
AcDbEntity
  8
0
  6
Continuous
 62
     7
100
AcDbLine
 10
256.6928652707
 20
173.7638744212
 30
0.0
 11
256.6928652707
 21
168.7638744212
 31
0.0
  0
LINE
  5
10E
330
1F
100
AcDbEntity
  8
0
  6
Continuous
 62
     7
100
AcDbLine
 10
304.6928652707
 20
173.7638744212
 30
0.0
 11
309.6928652707
 21
173.7638744212
 31
0.0
  0
LINE
  5
10F
330
1F
100
AcDbEntity
  8
0
  6
Continuous
 62
     7
100
AcDbLine
 10
304.6928652707
 20
173.7638744212
 30
0.0
 11
304.6928652707
 21
168.7638744212
 31
0.0
  0
LINE
  5
110
330
1F
100
AcDbEntity
  8
0
  6
Continuous
 62
     7
100
AcDbLine
 10
46.6928652706
 20
-107.2361255789
 30
0.0
 11
46.6928652706
 21
-112.2361255789
 31
0.0
  0
LINE
  5
111
330
1F
100
AcDbEntity
  8
0
  6
Continuous
 62
     7
100
AcDbLine
 10
309.6928652707
 20
173.7638744212
 30
0.0
 11
309.6928652707
 21
168.7638744212
 31
0.0
  0
LINE
  5
112
330
1F
100
AcDbEntity
  8
0
  6
Continuous
 62
     7
100
AcDbLine
 10
41.6928652706
 20
-47.2361255789
 30
0.0
 11
41.6928652706
 21
-107.2361255789
 31
0.0
  0
LINE
  5
113
330
1F
100
AcDbEntity
  8
0
  6
Continuous
 62
     7
100
AcDbLine
 10
354.6928652707
 20
173.7638744212
 30
0.0
 11
354.6928652707
 21
168.7638744212
 31
0.0
  0
LINE
  5
114
330
1F
100
AcDbEntity
  8
0
  6
Continuous
 62
     7
100
AcDbLine
 10
384.6928652707
 20
173.7638744212
 30
0.0
 11
384.6928652707
 21
168.7638744212
 31
0.0
  0
LINE
  5
115
330
1F
100
AcDbEntity
  8
0
  6
Continuous
 62
     7
100
AcDbLine
 10
304.6928652706
 20
108.7638744211
 30
0.0
 11
309.6928652706
 21
108.7638744211
 31
0.0
  0
LINE
  5
116
330
1F
100
AcDbEntity
  8
0
  6
Continuous
 62
     7
100
AcDbLine
 10
304.6928652706
 20
108.7638744211
 30
0.0
 11
304.6928652706
 21
78.7638744211
 31
0.0
  0
LINE
  5
117
330
1F
100
AcDbEntity
  8
0
  6
Continuous
 62
     7
100
AcDbLine
 10
304.6928652706
 20
78.7638744211
 30
0.0
 11
309.6928652706
 21
78.7638744211
 31
0.0
  0
LINE
  5
118
330
1F
100
AcDbEntity
  8
0
  6
Continuous
 62
     7
100
AcDbLine
 10
309.6928652706
 20
108.7638744211
 30
0.0
 11
309.6928652706
 21
78.7638744211
 31
0.0
  0
LINE
  5
119
330
1F
100
AcDbEntity
  8
0
  6
Continuous
 62
     7
100
AcDbLine
 10
164.6928652706
 20
108.7638744211
 30
0.0
 11
169.6928652706
 21
108.7638744211
 31
0.0
  0
LINE
  5
11A
330
1F
100
AcDbEntity
  8
0
  6
Continuous
 62
     7
100
AcDbLine
 10
164.6928652706
 20
108.7638744211
 30
0.0
 11
164.6928652706
 21
78.7638744211
 31
0.0
  0
LINE
  5
11B
330
1F
100
AcDbEntity
  8
0
  6
Continuous
 62
     7
100
AcDbLine
 10
164.6928652706
 20
78.7638744211
 30
0.0
 11
169.6928652706
 21
78.7638744211
 31
0.0
  0
LINE
  5
11C
330
1F
100
AcDbEntity
  8
0
  6
Continuous
 62
     7
100
AcDbLine
 10
169.6928652706
 20
108.7638744211
 30
0.0
 11
169.6928652706
 21
78.7638744211
 31
0.0
  0
LINE
  5
11D
330
1F
100
AcDbEntity
  8
0
  6
Continuous
 62
     7
100
AcDbLine
 10
41.6928652706
 20
108.7638744211
 30
0.0
 11
46.6928652706
 21
108.7638744211
 31
0.0
  0
LINE
  5
11E
330
1F
100
AcDbEntity
  8
0
  6
Continuous
 62
     7
100
AcDbLine
 10
41.6928652706
 20
-17.2361255789
 30
0.0
 11
41.6928652706
 21
78.7638744211
 31
0.0
  0
LINE
  5
11F
330
1F
100
AcDbEntity
  8
0
  6
Continuous
 62
     7
100
AcDbLine
 10
41.6928652706
 20
78.7638744211
 30
0.0
 11
46.6928652706
 21
78.7638744211
 31
0.0
  0
LINE
  5
120
330
1F
100
AcDbEntity
  8
0
  6
Continuous
 62
     7
100
AcDbLine
 10
46.6928652706
 20
108.7638744211
 30
0.0
 11
46.6928652706
 21
78.7638744211
 31
0.0
  0
LINE
  5
121
330
1F
100
AcDbEntity
  8
0
  6
Continuous
 62
     7
100
AcDbLine
 10
41.6928652706
 20
-17.2361255789
 30
0.0
 11
46.6928652706
 21
-17.2361255789
 31
0.0
  0
LINE
  5
122
330
1F
100
AcDbEntity
  8
0
  6
Continuous
 62
     7
100
AcDbLine
 10
41.6928652706
 20
168.7638744211
 30
0.0
 11
41.6928652706
 21
108.7638744211
 31
0.0
  0
LINE
  5
123
330
1F
100
AcDbEntity
  8
0
  6
Continuous
 62
     7
100
AcDbLine
 10
41.6928652706
 20
-47.2361255789
 30
0.0
 11
46.6928652706
 21
-47.2361255789
 31
0.0
  0
LINE
  5
124
330
1F
100
AcDbEntity
  8
0
  6
Continuous
 62
     7
100
AcDbLine
 10
46.6928652706
 20
-17.2361255789
 30
0.0
 11
46.6928652706
 21
-47.2361255789
 31
0.0
  0
LINE
  5
125
330
1F
100
AcDbEntity
  8
0
  6
Continuous
 62
     7
100
AcDbLine
 10
164.6928652706
 20
-17.2361255789
 30
0.0
 11
169.6928652706
 21
-17.2361255789
 31
0.0
  0
LINE
  5
126
330
1F
100
AcDbEntity
  8
0
  6
Continuous
 62
     7
100
AcDbLine
 10
164.6928652706
 20
-17.2361255789
 30
0.0
 11
164.6928652706
 21
-47.2361255789
 31
0.0
  0
LINE
  5
127
330
1F
100
AcDbEntity
  8
0
  6
Continuous
 62
     7
100
AcDbLine
 10
164.6928652706
 20
-47.2361255789
 30
0.0
 11
169.6928652706
 21
-47.2361255789
 31
0.0
  0
LINE
  5
128
330
1F
100
AcDbEntity
  8
0
  6
Continuous
 62
     7
100
AcDbLine
 10
169.6928652706
 20
-17.2361255789
 30
0.0
 11
169.6928652706
 21
-47.2361255789
 31
0.0
  0
LINE
  5
129
330
1F
100
AcDbEntity
  8
0
  6
Continuous
 62
     7
100
AcDbLine
 10
164.6928652706
 20
-107.2361255789
 30
0.0
 11
164.6928652706
 21
-112.2361255789
 31
0.0
  0
LINE
  5
12A
330
1F
100
AcDbEntity
  8
0
  6
Continuous
 62
     7
100
AcDbLine
 10
164.6928652706
 20
-112.2361255789
 30
0.0
 11
169.6928652706
 21
-112.2361255789
 31
0.0
  0
LINE
  5
12B
330
1F
100
AcDbEntity
  8
0
  6
Continuous
 62
     7
100
AcDbLine
 10
169.6928652706
 20
-107.236125579
 30
0.0
 11
169.6928652706
 21
-112.2361255789
 31
0.0
  0
LINE
  5
12C
330
1F
100
AcDbEntity
  8
0
  6
Continuous
 62
     7
100
AcDbLine
 10
86.6928652706
 20
-107.2361255789
 30
0.0
 11
86.6928652706
 21
-112.2361255789
 31
0.0
  0
LINE
  5
12D
330
1F
100
AcDbEntity
  8
0
  6
Continuous
 62
     7
100
AcDbLine
 10
86.6928652706
 20
-112.2361255789
 30
0.0
 11
116.6928652706
 21
-112.2361255789
 31
0.0
  0
LINE
  5
12E
330
1F
100
AcDbEntity
  8
0
  6
Continuous
 62
     7
100
AcDbLine
 10
116.6928652706
 20
-107.2361255789
 30
0.0
 11
116.6928652706
 21
-112.2361255789
 31
0.0
  0
LINE
  5
12F
330
1F
100
AcDbEntity
  8
0
  6
Continuous
 62
     7
100
AcDbLine
 10
216.6928652706
 20
-107.236125579
 30
0.0
 11
216.6928652706
 21
-112.236125579
 31
0.0
  0
LINE
  5
130
330
1F
100
AcDbEntity
  8
0
  6
Continuous
 62
     7
100
AcDbLine
 10
216.6928652706
 20
-112.236125579
 30
0.0
 11
256.6928652706
 21
-112.236125579
 31
0.0
  0
LINE
  5
131
330
1F
100
AcDbEntity
  8
0
  6
Continuous
 62
     7
100
AcDbLine
 10
256.6928652706
 20
-107.236125579
 30
0.0
 11
256.6928652706
 21
-112.236125579
 31
0.0
  0
LINE
  5
132
330
1F
100
AcDbEntity
  8
0
  6
Continuous
 62
     7
100
AcDbLine
 10
354.6928652706
 20
-107.236125579
 30
0.0
 11
354.6928652706
 21
-112.236125579
 31
0.0
  0
LINE
  5
133
330
1F
100
AcDbEntity
  8
0
  6
Continuous
 62
     7
100
AcDbLine
 10
354.6928652706
 20
-112.236125579
 30
0.0
 11
384.6928652706
 21
-112.236125579
 31
0.0
  0
LINE
  5
134
330
1F
100
AcDbEntity
  8
0
  6
Continuous
 62
     7
100
AcDbLine
 10
384.6928652706
 20
-107.236125579
 30
0.0
 11
384.6928652706
 21
-112.236125579
 31
0.0
  0
LINE
  5
135
330
1F
100
AcDbEntity
  8
0
  6
Continuous
 62
     7
100
AcDbLine
 10
304.6928652706
 20
-17.2361255789
 30
0.0
 11
309.6928652706
 21
-17.2361255789
 31
0.0
  0
LINE
  5
136
330
1F
100
AcDbEntity
  8
0
  6
Continuous
 62
     7
100
AcDbLine
 10
304.6928652706
 20
-17.2361255789
 30
0.0
 11
304.6928652706
 21
-47.2361255789
 31
0.0
  0
LINE
  5
137
330
1F
100
AcDbEntity
  8
0
  6
Continuous
 62
     7
100
AcDbLine
 10
304.6928652706
 20
-47.2361255789
 30
0.0
 11
309.6928652706
 21
-47.2361255789
 31
0.0
  0
LINE
  5
138
330
1F
100
AcDbEntity
  8
0
  6
Continuous
 62
     7
100
AcDbLine
 10
309.6928652706
 20
-17.2361255789
 30
0.0
 11
309.6928652706
 21
-47.2361255789
 31
0.0
  0
LINE
  5
139
330
1F
100
AcDbEntity
  8
0
  6
Continuous
 62
     7
100
AcDbLine
 10
164.6928652706
 20
-17.2361255789
 30
0.0
 11
169.6928652706
 21
-17.2361255789
 31
0.0
  0
LINE
  5
13A
330
1F
100
AcDbEntity
  8
0
  6
Continuous
 62
     7
100
AcDbLine
 10
164.6928652706
 20
-17.2361255789
 30
0.0
 11
164.6928652706
 21
-47.2361255789
 31
0.0
  0
LINE
  5
13B
330
1F
100
AcDbEntity
  8
0
  6
Continuous
 62
     7
100
AcDbLine
 10
164.6928652706
 20
-47.2361255789
 30
0.0
 11
169.6928652706
 21
-47.2361255789
 31
0.0
  0
LINE
  5
13C
330
1F
100
AcDbEntity
  8
0
  6
Continuous
 62
     7
100
AcDbLine
 10
169.6928652706
 20
-17.2361255789
 30
0.0
 11
169.6928652706
 21
-47.2361255789
 31
0.0
  0
LINE
  5
13D
330
1F
100
AcDbEntity
  8
0
  6
Continuous
 62
     7
100
AcDbLine
 10
412.6928652706
 20
-17.236125579
 30
0.0
 11
417.6928652706
 21
-17.236125579
 31
0.0
  0
LINE
  5
13E
330
1F
100
AcDbEntity
  8
0
  6
Continuous
 62
     7
100
AcDbLine
 10
412.6928652706
 20
-17.236125579
 30
0.0
 11
412.6928652706
 21
-47.236125579
 31
0.0
  0
LINE
  5
13F
330
1F
100
AcDbEntity
  8
0
  6
Continuous
 62
     7
100
AcDbLine
 10
412.6928652706
 20
-47.236125579
 30
0.0
 11
417.6928652706
 21
-47.236125579
 31
0.0
  0
LINE
  5
140
330
1F
100
AcDbEntity
  8
0
  6
Continuous
 62
     7
100
AcDbLine
 10
86.6928652706
 20
173.7638744211
 30
0.0
 11
116.6928652706
 21
173.7638744211
 31
0.0
  0
LINE
  5
141
330
1F
100
AcDbEntity
  8
0
  6
Continuous
 62
     7
100
AcDbLine
 10
86.6928652706
 20
173.7638744211
 30
0.0
 11
86.6928652706
 21
168.7638744211
 31
0.0
  0
LINE
  5
142
330
1F
100
AcDbEntity
  8
0
  6
Continuous
 62
     7
100
AcDbLine
 10
116.6928652706
 20
173.7638744211
 30
0.0
 11
116.6928652706
 21
168.7638744211
 31
0.0
  0
LINE
  5
143
330
1F
100
AcDbEntity
  8
0
  6
Continuous
 62
     7
100
AcDbLine
 10
164.6928652706
 20
173.7638744212
 30
0.0
 11
169.6928652707
 21
173.7638744212
 31
0.0
  0
LINE
  5
144
330
1F
100
AcDbEntity
  8
0
  6
Continuous
 62
     7
100
AcDbLine
 10
164.6928652706
 20
173.7638744212
 30
0.0
 11
164.6928652706
 21
168.7638744211
 31
0.0
  0
LINE
  5
145
330
1F
100
AcDbEntity
  8
0
  6
Continuous
 62
     7
100
AcDbLine
 10
169.6928652707
 20
173.7638744212
 30
0.0
 11
169.6928652707
 21
168.7638744212
 31
0.0
  0
LINE
  5
146
330
1F
100
AcDbEntity
  8
0
  6
Continuous
 62
     7
100
AcDbLine
 10
216.6928652707
 20
173.7638744212
 30
0.0
 11
256.6928652707
 21
173.7638744212
 31
0.0
  0
LINE
  5
147
330
1F
100
AcDbEntity
  8
0
  6
Continuous
 62
     7
100
AcDbLine
 10
216.6928652707
 20
173.7638744212
 30
0.0
 11
216.6928652707
 21
168.7638744212
 31
0.0
  0
LINE
  5
148
330
1F
100
AcDbEntity
  8
0
  6
Continuous
 62
     7
100
AcDbLine
 10
256.6928652707
 20
173.7638744212
 30
0.0
 11
256.6928652707
 21
168.7638744212
 31
0.0
  0
LINE
  5
149
330
1F
100
AcDbEntity
  8
0
  6
Continuous
 62
     7
100
AcDbLine
 10
304.6928652707
 20
173.7638744212
 30
0.0
 11
309.6928652707
 21
173.7638744212
 31
0.0
  0
LINE
  5
14A
330
1F
100
AcDbEntity
  8
0
  6
Continuous
 62
     7
100
AcDbLine
 10
304.6928652707
 20
173.7638744212
 30
0.0
 11
304.6928652707
 21
168.7638744212
 31
0.0
  0
LINE
  5
14B
330
1F
100
AcDbEntity
  8
0
  6
Continuous
 62
     7
100
AcDbLine
 10
309.6928652707
 20
173.7638744212
 30
0.0
 11
309.6928652707
 21
168.7638744212
 31
0.0
  0
LINE
  5
14C
330
1F
100
AcDbEntity
  8
0
  6
Continuous
 62
     7
100
AcDbLine
 10
354.6928652707
 20
173.7638744212
 30
0.0
 11
354.6928652707
 21
168.7638744212
 31
0.0
  0
LINE
  5
14D
330
1F
100
AcDbEntity
  8
0
  6
Continuous
 62
     7
100
AcDbLine
 10
384.6928652707
 20
173.7638744212
 30
0.0
 11
384.6928652707
 21
168.7638744212
 31
0.0
  0
LINE
  5
14E
330
1F
100
AcDbEntity
  8
0
  6
Continuous
 62
     7
100
AcDbLine
 10
417.6928652706
 20
108.763874421
 30
0.0
 11
412.6928652706
 21
108.763874421
 31
0.0
  0
LINE
  5
14F
330
1F
100
AcDbEntity
  8
0
  6
Continuous
 62
     7
100
AcDbLine
 10
417.6928652706
 20
78.763874421
 30
0.0
 11
412.6928652706
 21
78.763874421
 31
0.0
  0
LINE
  5
150
330
1F
100
AcDbEntity
  8
0
  6
Continuous
 62
     7
100
AcDbLine
 10
412.6928652706
 20
108.763874421
 30
0.0
 11
412.6928652706
 21
78.763874421
 31
0.0
  0
LINE
  5
151
330
1F
100
AcDbEntity
  8
0
  6
Continuous
 62
     7
100
AcDbLine
 10
417.6928652706
 20
-17.236125579
 30
0.0
 11
412.6928652706
 21
-17.236125579
 31
0.0
  0
LINE
  5
152
330
1F
100
AcDbEntity
  8
0
  6
Continuous
 62
     7
100
AcDbLine
 10
417.6928652706
 20
-47.236125579
 30
0.0
 11
412.6928652706
 21
-47.236125579
 31
0.0
  0
LINE
  5
153
330
1F
100
AcDbEntity
  8
0
  6
Continuous
 62
     7
100
AcDbLine
 10
412.6928652706
 20
-17.236125579
 30
0.0
 11
412.6928652706
 21
-47.236125579
 31
0.0
  0
LINE
  5
154
330
1F
100
AcDbEntity
  8
0
  6
Continuous
 62
     7
100
AcDbLine
 10
354.6928652706
 20
-107.236125579
 30
0.0
 11
354.6928652706
 21
-112.236125579
 31
0.0
  0
LINE
  5
155
330
1F
100
AcDbEntity
  8
0
  6
Continuous
 62
     7
100
AcDbLine
 10
581.2315550793
 20
554.758929353
 30
0.0
 11
867.2315550793
 21
554.758929353
 31
0.0
  0
LINE
  5
156
330
1F
100
AcDbEntity
  8
0
  6
Continuous
 62
     7
100
AcDbLine
 10
586.2315550793
 20
424.758929353
 30
0.0
 11
586.2315550793
 21
404.758929353
 31
0.0
  0
LINE
  5
157
330
1F
100
AcDbEntity
  8
0
  6
Continuous
 62
     7
100
AcDbLine
 10
586.2315550793
 20
518.758929353
 30
0.0
 11
586.2315550793
 21
444.758929353
 31
0.0
  0
LINE
  5
158
330
1F
100
AcDbEntity
  8
0
  6
Continuous
 62
     7
100
AcDbLine
 10
862.2315550793
 20
518.758929353
 30
0.0
 11
862.2315550793
 21
444.758929353
 31
0.0
  0
LINE
  5
159
330
1F
100
AcDbEntity
  8
0
  6
Continuous
 62
     7
100
AcDbLine
 10
354.6928652706
 20
-112.236125579
 30
0.0
 11
384.6928652706
 21
-112.236125579
 31
0.0
  0
LINE
  5
15A
330
1F
100
AcDbEntity
  8
0
  6
Continuous
 62
     7
100
AcDbLine
 10
586.2315550793
 20
404.758929353
 30
0.0
 11
646.2315550793
 21
404.758929353
 31
0.0
  0
LINE
  5
15B
330
1F
100
AcDbEntity
  8
0
  6
Continuous
 62
     7
100
AcDbLine
 10
676.2315550793
 20
404.758929353
 30
0.0
 11
772.2315550793
 21
404.758929353
 31
0.0
  0
LINE
  5
15C
330
1F
100
AcDbEntity
  8
0
  6
Continuous
 62
     7
100
AcDbLine
 10
862.2315550793
 20
424.758929353
 30
0.0
 11
862.2315550793
 21
404.758929353
 31
0.0
  0
LINE
  5
15D
330
1F
100
AcDbEntity
  8
0
  6
Continuous
 62
     7
100
AcDbLine
 10
384.6928652706
 20
-107.236125579
 30
0.0
 11
384.6928652706
 21
-112.236125579
 31
0.0
  0
LINE
  5
15E
330
1F
100
AcDbEntity
  8
0
  6
Continuous
 62
     7
100
AcDbLine
 10
581.2315550793
 20
444.758929353
 30
0.0
 11
581.2315550793
 21
424.758929353
 31
0.0
  0
LINE
  5
15F
330
1F
100
AcDbEntity
  8
0
  6
Continuous
 62
     7
100
AcDbLine
 10
216.6928652706
 20
-107.236125579
 30
0.0
 11
216.6928652706
 21
-112.236125579
 31
0.0
  0
LINE
  5
160
330
1F
100
AcDbEntity
  8
0
  6
Continuous
 62
     7
100
AcDbLine
 10
867.2315550793
 20
444.758929353
 30
0.0
 11
867.2315550793
 21
424.758929353
 31
0.0
  0
LINE
  5
161
330
1F
100
AcDbEntity
  8
0
  6
Continuous
 62
     7
100
AcDbLine
 10
581.2315550793
 20
554.758929353
 30
0.0
 11
586.2315550793
 21
554.758929353
 31
0.0
  0
LINE
  5
162
330
1F
100
AcDbEntity
  8
0
  6
Continuous
 62
     7
100
AcDbLine
 10
802.2315550793
 20
404.758929353
 30
0.0
 11
862.2315550793
 21
404.758929353
 31
0.0
  0
LINE
  5
163
330
1F
100
AcDbEntity
  8
0
  6
Continuous
 62
     7
100
AcDbLine
 10
216.6928652706
 20
-112.236125579
 30
0.0
 11
256.6928652706
 21
-112.236125579
 31
0.0
  0
LINE
  5
164
330
1F
100
AcDbEntity
  8
0
  6
Continuous
 62
     7
100
AcDbLine
 10
256.6928652706
 20
-107.236125579
 30
0.0
 11
256.6928652706
 21
-112.236125579
 31
0.0
  0
LINE
  5
165
330
1F
100
AcDbEntity
  8
0
  6
Continuous
 62
     7
100
AcDbLine
 10
867.2315550793
 20
554.758929353
 30
0.0
 11
862.2315550793
 21
554.758929353
 31
0.0
  0
LINE
  5
166
330
1F
100
AcDbEntity
  8
0
  6
Continuous
 62
     7
100
AcDbLine
 10
164.6928652706
 20
-107.2361255789
 30
0.0
 11
164.6928652706
 21
-112.2361255789
 31
0.0
  0
LINE
  5
167
330
1F
100
AcDbEntity
  8
0
  6
Continuous
 62
     7
100
AcDbLine
 10
164.6928652706
 20
-112.2361255789
 30
0.0
 11
169.6928652706
 21
-112.2361255789
 31
0.0
  0
LINE
  5
168
330
1F
100
AcDbEntity
  8
0
  6
Continuous
 62
     7
100
AcDbLine
 10
169.6928652706
 20
-107.236125579
 30
0.0
 11
169.6928652706
 21
-112.2361255789
 31
0.0
  0
LINE
  5
169
330
1F
100
AcDbEntity
  8
0
  6
Continuous
 62
     7
100
AcDbLine
 10
646.2315550793
 20
554.758929353
 30
0.0
 11
676.2315550793
 21
554.758929353
 31
0.0
  0
LINE
  5
16A
330
1F
100
AcDbEntity
  8
0
  6
Continuous
 62
     7
100
AcDbLine
 10
86.6928652706
 20
-107.2361255789
 30
0.0
 11
86.6928652706
 21
-112.2361255789
 31
0.0
  0
LINE
  5
16B
330
1F
100
AcDbEntity
  8
0
  6
Continuous
 62
     7
100
AcDbLine
 10
646.2315550793
 20
399.758929353
 30
0.0
 11
676.2315550793
 21
399.758929353
 31
0.0
  0
LINE
  5
16C
330
1F
100
AcDbEntity
  8
0
  6
Continuous
 62
     7
100
AcDbLine
 10
86.6928652706
 20
-112.2361255789
 30
0.0
 11
116.6928652706
 21
-112.2361255789
 31
0.0
  0
LINE
  5
16D
330
1F
100
AcDbEntity
  8
0
  6
Continuous
 62
     7
100
AcDbLine
 10
772.2315550793
 20
554.758929353
 30
0.0
 11
802.2315550793
 21
554.758929353
 31
0.0
  0
LINE
  5
16E
330
1F
100
AcDbEntity
  8
0
  6
Continuous
 62
     7
100
AcDbLine
 10
116.6928652706
 20
-107.2361255789
 30
0.0
 11
116.6928652706
 21
-112.2361255789
 31
0.0
  0
LINE
  5
16F
330
1F
100
AcDbEntity
  8
0
  6
Continuous
 62
     7
100
AcDbLine
 10
772.2315550793
 20
399.758929353
 30
0.0
 11
802.2315550793
 21
399.758929353
 31
0.0
  0
LINE
  5
170
330
1F
100
AcDbEntity
  8
0
  6
Continuous
 62
     7
100
AcDbLine
 10
164.6928652706
 20
108.7638744211
 30
0.0
 11
169.6928652706
 21
108.7638744211
 31
0.0
  0
LINE
  5
171
330
1F
100
AcDbEntity
  8
0
  6
Continuous
 62
     7
100
AcDbLine
 10
164.6928652706
 20
108.7638744211
 30
0.0
 11
164.6928652706
 21
78.7638744211
 31
0.0
  0
LINE
  5
172
330
1F
100
AcDbEntity
  8
0
  6
Continuous
 62
     7
100
AcDbLine
 10
164.6928652706
 20
78.7638744211
 30
0.0
 11
169.6928652706
 21
78.7638744211
 31
0.0
  0
LINE
  5
173
330
1F
100
AcDbEntity
  8
0
  6
Continuous
 62
     7
100
AcDbLine
 10
169.6928652706
 20
108.7638744211
 30
0.0
 11
169.6928652706
 21
78.7638744211
 31
0.0
  0
LINE
  5
174
330
1F
100
AcDbEntity
  8
0
  6
Continuous
 62
     7
100
AcDbLine
 10
304.6928652706
 20
108.7638744211
 30
0.0
 11
309.6928652706
 21
108.7638744211
 31
0.0
  0
LINE
  5
175
330
1F
100
AcDbEntity
  8
0
  6
Continuous
 62
     7
100
AcDbLine
 10
581.2315550793
 20
554.758929353
 30
0.0
 11
867.2315550793
 21
554.758929353
 31
0.0
  0
LINE
  5
176
330
1F
100
AcDbEntity
  8
0
  6
Continuous
 62
     7
100
AcDbLine
 10
581.2315550793
 20
554.758929353
 30
0.0
 11
581.2315550793
 21
548.758929353
 31
0.0
  0
LINE
  5
177
330
1F
100
AcDbEntity
  8
0
  6
Continuous
 62
     7
100
AcDbLine
 10
304.6928652706
 20
108.7638744211
 30
0.0
 11
304.6928652706
 21
78.7638744211
 31
0.0
  0
LINE
  5
178
330
1F
100
AcDbEntity
  8
0
  6
Continuous
 62
     7
100
AcDbLine
 10
867.2315550793
 20
554.758929353
 30
0.0
 11
867.2315550793
 21
548.758929353
 31
0.0
  0
LINE
  5
179
330
1F
100
AcDbEntity
  8
0
  6
Continuous
 62
     7
100
AcDbLine
 10
304.6928652706
 20
78.7638744211
 30
0.0
 11
309.6928652706
 21
78.7638744211
 31
0.0
  0
LINE
  5
17A
330
1F
100
AcDbEntity
  8
0
  6
Continuous
 62
     7
100
AcDbLine
 10
581.2315550793
 20
554.758929353
 30
0.0
 11
586.2315550793
 21
554.758929353
 31
0.0
  0
LINE
  5
17B
330
1F
100
AcDbEntity
  8
0
  6
Continuous
 62
     7
100
AcDbLine
 10
581.2315550793
 20
554.758929353
 30
0.0
 11
581.2315550793
 21
518.758929353
 31
0.0
  0
LINE
  5
17C
330
1F
100
AcDbEntity
  8
0
  6
Continuous
 62
     7
100
AcDbLine
 10
581.2315550793
 20
518.758929353
 30
0.0
 11
586.2315550793
 21
518.758929353
 31
0.0
  0
LINE
  5
17D
330
1F
100
AcDbEntity
  8
0
  6
Continuous
 62
     7
100
AcDbLine
 10
309.6928652706
 20
108.7638744211
 30
0.0
 11
309.6928652706
 21
78.7638744211
 31
0.0
  0
LINE
  5
17E
330
1F
100
AcDbEntity
  8
0
  6
Continuous
 62
     7
100
AcDbLine
 10
581.2315550793
 20
444.758929353
 30
0.0
 11
586.2315550793
 21
444.758929353
 31
0.0
  0
LINE
  5
17F
330
1F
100
AcDbEntity
  8
0
  6
Continuous
 62
     7
100
AcDbLine
 10
581.2315550793
 20
444.758929353
 30
0.0
 11
581.2315550793
 21
424.758929353
 31
0.0
  0
LINE
  5
180
330
1F
100
AcDbEntity
  8
0
  6
Continuous
 62
     7
100
AcDbLine
 10
581.2315550793
 20
424.758929353
 30
0.0
 11
586.2315550793
 21
424.758929353
 31
0.0
  0
LINE
  5
181
330
1F
100
AcDbEntity
  8
0
  6
Continuous
 62
     7
100
AcDbLine
 10
304.6928652706
 20
-17.2361255789
 30
0.0
 11
309.6928652706
 21
-17.2361255789
 31
0.0
  0
LINE
  5
182
330
1F
100
AcDbEntity
  8
0
  6
Continuous
 62
     7
100
AcDbLine
 10
304.6928652706
 20
-17.2361255789
 30
0.0
 11
304.6928652706
 21
-47.2361255789
 31
0.0
  0
LINE
  5
183
330
1F
100
AcDbEntity
  8
0
  6
Continuous
 62
     7
100
AcDbLine
 10
646.2315550793
 20
404.758929353
 30
0.0
 11
646.2315550793
 21
399.758929353
 31
0.0
  0
LINE
  5
184
330
1F
100
AcDbEntity
  8
0
  6
Continuous
 62
     7
100
AcDbLine
 10
646.2315550793
 20
399.758929353
 30
0.0
 11
676.2315550793
 21
399.758929353
 31
0.0
  0
LINE
  5
185
330
1F
100
AcDbEntity
  8
0
  6
Continuous
 62
     7
100
AcDbLine
 10
676.2315550793
 20
404.758929353
 30
0.0
 11
676.2315550793
 21
399.758929353
 31
0.0
  0
LINE
  5
186
330
1F
100
AcDbEntity
  8
0
  6
Continuous
 62
     7
100
AcDbLine
 10
304.6928652706
 20
-47.2361255789
 30
0.0
 11
309.6928652706
 21
-47.2361255789
 31
0.0
  0
LINE
  5
187
330
1F
100
AcDbEntity
  8
0
  6
Continuous
 62
     7
100
AcDbLine
 10
772.2315550793
 20
404.758929353
 30
0.0
 11
772.2315550793
 21
399.758929353
 31
0.0
  0
LINE
  5
188
330
1F
100
AcDbEntity
  8
0
  6
Continuous
 62
     7
100
AcDbLine
 10
772.2315550793
 20
399.758929353
 30
0.0
 11
802.2315550793
 21
399.758929353
 31
0.0
  0
LINE
  5
189
330
1F
100
AcDbEntity
  8
0
  6
Continuous
 62
     7
100
AcDbLine
 10
802.2315550793
 20
404.758929353
 30
0.0
 11
802.2315550793
 21
399.758929353
 31
0.0
  0
LINE
  5
18A
330
1F
100
AcDbEntity
  8
0
  6
Continuous
 62
     7
100
AcDbLine
 10
867.2315550793
 20
444.758929353
 30
0.0
 11
862.2315550793
 21
444.758929353
 31
0.0
  0
LINE
  5
18B
330
1F
100
AcDbEntity
  8
0
  6
Continuous
 62
     7
100
AcDbLine
 10
867.2315550793
 20
444.758929353
 30
0.0
 11
867.2315550793
 21
424.758929353
 31
0.0
  0
LINE
  5
18C
330
1F
100
AcDbEntity
  8
0
  6
Continuous
 62
     7
100
AcDbLine
 10
867.2315550793
 20
424.758929353
 30
0.0
 11
862.2315550793
 21
424.758929353
 31
0.0
  0
LINE
  5
18D
330
1F
100
AcDbEntity
  8
0
  6
Continuous
 62
     7
100
AcDbLine
 10
309.6928652706
 20
-17.2361255789
 30
0.0
 11
309.6928652706
 21
-47.2361255789
 31
0.0
  0
LINE
  5
18E
330
1F
100
AcDbEntity
  8
0
  6
Continuous
 62
     7
100
AcDbLine
 10
867.2315550793
 20
554.758929353
 30
0.0
 11
862.2315550793
 21
554.758929353
 31
0.0
  0
LINE
  5
18F
330
1F
100
AcDbEntity
  8
0
  6
Continuous
 62
     7
100
AcDbLine
 10
867.2315550793
 20
554.758929353
 30
0.0
 11
867.2315550793
 21
518.758929353
 31
0.0
  0
LINE
  5
190
330
1F
100
AcDbEntity
  8
0
  6
Continuous
 62
     7
100
AcDbLine
 10
867.2315550793
 20
518.758929353
 30
0.0
 11
862.2315550793
 21
518.758929353
 31
0.0
  0
LINE
  5
191
330
1F
100
AcDbEntity
  8
0
  6
Continuous
 62
     7
100
AcDbLine
 10
164.6928652706
 20
-17.2361255789
 30
0.0
 11
169.6928652706
 21
-17.2361255789
 31
0.0
  0
LINE
  5
192
330
1F
100
AcDbEntity
  8
0
  6
Continuous
 62
     7
100
AcDbLine
 10
719.2315550793
 20
554.758929353
 30
0.0
 11
724.2315550793
 21
554.758929353
 31
0.0
  0
LINE
  5
193
330
1F
100
AcDbEntity
  8
0
  6
Continuous
 62
     7
100
AcDbLine
 10
164.6928652706
 20
-17.2361255789
 30
0.0
 11
164.6928652706
 21
-47.2361255789
 31
0.0
  0
LINE
  5
194
330
1F
100
AcDbEntity
  8
0
  6
Continuous
 62
     7
100
AcDbLine
 10
164.6928652706
 20
-47.2361255789
 30
0.0
 11
169.6928652706
 21
-47.2361255789
 31
0.0
  0
LINE
  5
195
330
1F
100
AcDbEntity
  8
0
  6
Continuous
 62
     7
100
AcDbLine
 10
729.2315550793
 20
554.758929353
 30
0.0
 11
724.2315550793
 21
554.758929353
 31
0.0
  0
LINE
  5
196
330
1F
100
AcDbEntity
  8
0
  6
Continuous
 62
     7
100
AcDbLine
 10
169.6928652706
 20
-17.2361255789
 30
0.0
 11
169.6928652706
 21
-47.2361255789
 31
0.0
  0
LINE
  5
197
330
1F
100
AcDbEntity
  8
0
  6
Continuous
 62
     7
100
AcDbLine
 10
41.6928652706
 20
35.7638744211
 30
0.0
 11
41.6928652706
 21
30.7638744211
 31
0.0
  0
LINE
  5
198
330
1F
100
AcDbEntity
  8
0
  6
Continuous
 62
     7
100
AcDbLine
 10
256.6928652707
 20
173.7638744212
 30
0.0
 11
216.6928652707
 21
173.7638744212
 31
0.0
  0
LINE
  5
199
330
1F
100
AcDbEntity
  8
0
  6
Continuous
 62
     7
100
AcDbLine
 10
256.6928652706
 20
-112.236125579
 30
0.0
 11
216.6928652706
 21
-112.236125579
 31
0.0
  0
LINE
  5
19A
330
1F
100
AcDbEntity
  8
0
  6
Continuous
 62
     7
100
AcDbLine
 10
116.6928652706
 20
173.7638744211
 30
0.0
 11
86.6928652706
 21
173.7638744211
 31
0.0
  0
LINE
  5
19B
330
1F
100
AcDbEntity
  8
0
  6
Continuous
 62
     7
100
AcDbLine
 10
724.2315550793
 20
518.758929353
 30
0.0
 11
729.2315550793
 21
518.758929353
 31
0.0
  0
LINE
  5
19C
330
1F
100
AcDbEntity
  8
0
  6
Continuous
 62
     7
100
AcDbLine
 10
116.6928652706
 20
-112.2361255789
 30
0.0
 11
86.6928652706
 21
-112.2361255789
 31
0.0
  0
LINE
  5
19D
330
1F
100
AcDbEntity
  8
0
  6
Continuous
 62
     7
100
AcDbLine
 10
724.2315550793
 20
444.758929353
 30
0.0
 11
729.2315550793
 21
444.758929353
 31
0.0
  0
LINE
  5
19E
330
1F
100
AcDbEntity
  8
0
  6
Continuous
 62
     7
100
AcDbLine
 10
724.2315550793
 20
444.758929353
 30
0.0
 11
724.2315550793
 21
424.758929353
 31
0.0
  0
LINE
  5
19F
330
1F
100
AcDbEntity
  8
0
  6
Continuous
 62
     7
100
AcDbLine
 10
724.2315550793
 20
424.758929353
 30
0.0
 11
729.2315550793
 21
424.758929353
 31
0.0
  0
LINE
  5
1A0
330
1F
100
AcDbEntity
  8
0
  6
Continuous
 62
     7
100
AcDbLine
 10
729.2315550793
 20
444.758929353
 30
0.0
 11
729.2315550793
 21
424.758929353
 31
0.0
  0
LINE
  5
1A1
330
1F
100
AcDbEntity
  8
0
  6
Continuous
 62
     7
100
AcDbLine
 10
724.2315550793
 20
518.758929353
 30
0.0
 11
729.2315550793
 21
518.758929353
 31
0.0
  0
LINE
  5
1A2
330
1F
100
AcDbEntity
  8
0
  6
Continuous
 62
     7
100
AcDbLine
 10
724.2315550793
 20
518.758929353
 30
0.0
 11
724.2315550793
 21
498.758929353
 31
0.0
  0
LINE
  5
1A3
330
1F
100
AcDbEntity
  8
0
  6
Continuous
 62
     7
100
AcDbLine
 10
724.2315550793
 20
498.758929353
 30
0.0
 11
729.2315550793
 21
498.758929353
 31
0.0
  0
LINE
  5
1A4
330
1F
100
AcDbEntity
  8
0
  6
Continuous
 62
     7
100
AcDbLine
 10
729.2315550793
 20
518.758929353
 30
0.0
 11
729.2315550793
 21
498.758929353
 31
0.0
  0
LINE
  5
1A5
330
1F
100
AcDbEntity
  8
0
  6
Continuous
 62
     7
100
AcDbLine
 10
724.2315550793
 20
444.758929353
 30
0.0
 11
729.2315550793
 21
444.758929353
 31
0.0
  0
LINE
  5
1A6
330
1F
100
AcDbEntity
  8
0
  6
Continuous
 62
     7
100
AcDbLine
 10
724.2315550793
 20
444.758929353
 30
0.0
 11
724.2315550793
 21
424.758929353
 31
0.0
  0
LINE
  5
1A7
330
1F
100
AcDbEntity
  8
0
  6
Continuous
 62
     7
100
AcDbLine
 10
724.2315550793
 20
424.758929353
 30
0.0
 11
729.2315550793
 21
424.758929353
 31
0.0
  0
LINE
  5
1A8
330
1F
100
AcDbEntity
  8
0
  6
Continuous
 62
     7
100
AcDbLine
 10
729.2315550793
 20
444.758929353
 30
0.0
 11
729.2315550793
 21
424.758929353
 31
0.0
  0
LINE
  5
1A9
330
1F
100
AcDbEntity
  8
0
  6
Continuous
 62
     7
100
AcDbLine
 10
116.6928652706
 20
30.7638744211
 30
0.0
 11
86.6928652706
 21
30.7638744211
 31
0.0
  0
LINE
  5
1AA
330
1F
100
AcDbEntity
  8
0
  6
Continuous
 62
     7
100
AcDbLine
 10
116.6928652706
 20
30.7638744211
 30
0.0
 11
116.6928652706
 21
35.7638744211
 31
0.0
  0
LINE
  5
1AB
330
1F
100
AcDbEntity
  8
0
  6
Continuous
 62
     7
100
AcDbLine
 10
116.6928652706
 20
35.7638744211
 30
0.0
 11
86.6928652706
 21
35.7638744211
 31
0.0
  0
LINE
  5
1AC
330
1F
100
AcDbEntity
  8
0
  6
Continuous
 62
     7
100
AcDbLine
 10
86.6928652706
 20
30.7638744211
 30
0.0
 11
86.6928652706
 21
35.7638744211
 31
0.0
  0
LINE
  5
1AD
330
1F
100
AcDbEntity
  8
0
  6
Continuous
 62
     7
100
AcDbLine
 10
807.6141297141
 20
385.7439975066
 30
0.0
 11
531.6141297141
 21
385.7439975066
 31
0.0
  0
LINE
  5
1AE
330
1F
100
AcDbEntity
  8
0
  6
Continuous
 62
     7
100
AcDbLine
 10
727.3326424898
 20
202.246354111
 30
0.0
 11
609.3326424898
 21
202.246354111
 31
0.0
  0
LINE
  5
1AF
330
1F
100
AcDbEntity
  8
0
  6
Continuous
 62
     7
100
AcDbLine
 10
531.6141297141
 20
355.7439975066
 30
0.0
 11
531.6141297141
 21
281.7439975067
 31
0.0
  0
LINE
  5
1B0
330
1F
100
AcDbEntity
  8
0
  6
Continuous
 62
     7
100
AcDbLine
 10
531.6141297141
 20
261.7439975067
 30
0.0
 11
531.6141297141
 21
241.7439975067
 31
0.0
  0
LINE
  5
1B1
330
1F
100
AcDbEntity
  8
0
  6
Continuous
 62
     7
100
AcDbLine
 10
609.3326424898
 20
202.246354111
 30
0.0
 11
609.3326424898
 21
172.246354111
 31
0.0
  0
LINE
  5
1B2
330
1F
100
AcDbEntity
  8
0
  6
Continuous
 62
     7
100
AcDbLine
 10
727.3326424898
 20
202.246354111
 30
0.0
 11
727.3326424898
 21
172.246354111
 31
0.0
  0
LINE
  5
1B3
330
1F
100
AcDbEntity
  8
0
  6
Continuous
 62
     7
100
AcDbLine
 10
609.3326424898
 20
152.246354111
 30
0.0
 11
609.3326424898
 21
98.246354111
 31
0.0
  0
LINE
  5
1B4
330
1F
100
AcDbEntity
  8
0
  6
Continuous
 62
     7
100
AcDbLine
 10
609.3326424898
 20
78.246354111
 30
0.0
 11
609.3326424898
 21
58.246354111
 31
0.0
  0
LINE
  5
1B5
330
1F
100
AcDbEntity
  8
0
  6
Continuous
 62
     7
100
AcDbLine
 10
609.3326424898
 20
58.246354111
 30
0.0
 11
649.3326424898
 21
58.246354111
 31
0.0
  0
LINE
  5
1B6
330
1F
100
AcDbEntity
  8
0
  6
Continuous
 62
     7
100
AcDbLine
 10
531.6141297141
 20
241.7439975067
 30
0.0
 11
591.6141297141
 21
241.7439975067
 31
0.0
  0
LINE
  5
1B7
330
1F
100
AcDbEntity
  8
0
  6
Continuous
 62
     7
100
AcDbLine
 10
591.6141297141
 20
241.7439975067
 30
0.0
 11
592.0689694919
 21
242.1070350664
 31
0.0
  0
LINE
  5
1B8
330
1F
100
AcDbEntity
  8
0
  6
Continuous
 62
     7
100
AcDbLine
 10
621.6141297141
 20
241.7439975067
 30
0.0
 11
717.6141297141
 21
241.7439975067
 31
0.0
  0
LINE
  5
1B9
330
1F
100
AcDbEntity
  8
0
  6
Continuous
 62
     7
100
AcDbLine
 10
649.3326424898
 20
58.246354111
 30
0.0
 11
649.2440221476
 21
58.2826390334
 31
0.0
  0
LINE
  5
1BA
330
1F
100
AcDbEntity
  8
0
  6
Continuous
 62
     7
100
AcDbLine
 10
747.6141297141
 20
241.7439975067
 30
0.0
 11
807.6141297141
 21
241.7439975067
 31
0.0
  0
LINE
  5
1BB
330
1F
100
AcDbEntity
  8
0
  6
Continuous
 62
     7
100
AcDbLine
 10
807.6141297141
 20
241.7439975067
 30
0.0
 11
807.6141297141
 21
261.7439975067
 31
0.0
  0
LINE
  5
1BC
330
1F
100
AcDbEntity
  8
0
  6
Continuous
 62
     7
100
AcDbLine
 10
807.6141297141
 20
281.7439975067
 30
0.0
 11
807.6141297141
 21
355.7439975066
 31
0.0
  0
LINE
  5
1BD
330
1F
100
AcDbEntity
  8
0
  6
Continuous
 62
     7
100
AcDbLine
 10
526.6141297141
 20
385.7439975066
 30
0.0
 11
526.6141297141
 21
355.7439975066
 31
0.0
  0
LINE
  5
1BE
330
1F
100
AcDbEntity
  8
0
  6
Continuous
 62
     7
100
AcDbLine
 10
71.4390047843
 20
-217.0052540581
 30
0.0
 11
357.4390047843
 21
-217.0052540581
 31
0.0
  0
LINE
  5
1BF
330
1F
100
AcDbEntity
  8
0
  6
Continuous
 62
     7
100
AcDbLine
 10
812.6141297141
 20
385.7439975066
 30
0.0
 11
812.6141297141
 21
355.7439975066
 31
0.0
  0
LINE
  5
1C0
330
1F
100
AcDbEntity
  8
0
  6
Continuous
 62
     7
100
AcDbLine
 10
526.6141297141
 20
281.7439975067
 30
0.0
 11
526.6141297141
 21
261.7439975067
 31
0.0
  0
LINE
  5
1C1
330
1F
100
AcDbEntity
  8
0
  6
Continuous
 62
     7
100
AcDbLine
 10
812.6141297141
 20
281.7439975067
 30
0.0
 11
812.6141297141
 21
261.7439975067
 31
0.0
  0
LINE
  5
1C2
330
1F
100
AcDbEntity
  8
0
  6
Continuous
 62
     7
100
AcDbLine
 10
591.6141297141
 20
241.7439975067
 30
0.0
 11
591.6141297141
 21
236.7439975067
 31
0.0
  0
LINE
  5
1C3
330
1F
100
AcDbEntity
  8
0
  6
Continuous
 62
     7
100
AcDbLine
 10
591.6141297141
 20
236.7439975067
 30
0.0
 11
621.6141297141
 21
236.7439975067
 31
0.0
  0
LINE
  5
1C4
330
1F
100
AcDbEntity
  8
0
  6
Continuous
 62
     7
100
AcDbLine
 10
621.6141297141
 20
241.7439975067
 30
0.0
 11
621.6141297141
 21
236.7439975067
 31
0.0
  0
LINE
  5
1C5
330
1F
100
AcDbEntity
  8
0
  6
Continuous
 62
     7
100
AcDbLine
 10
679.3326424898
 20
58.246354111
 30
0.0
 11
727.3326424898
 21
58.246354111
 31
0.0
  0
LINE
  5
1C6
330
1F
100
AcDbEntity
  8
0
  6
Continuous
 62
     7
100
AcDbLine
 10
717.6141297141
 20
241.7439975067
 30
0.0
 11
717.6141297141
 21
236.7439975067
 31
0.0
  0
LINE
  5
1C7
330
1F
100
AcDbEntity
  8
0
  6
Continuous
 62
     7
100
AcDbLine
 10
727.3326424898
 20
58.246354111
 30
0.0
 11
727.3326424898
 21
78.2463541111
 31
0.0
  0
LINE
  5
1C8
330
1F
100
AcDbEntity
  8
0
  6
Continuous
 62
     7
100
AcDbLine
 10
717.6141297141
 20
236.7439975067
 30
0.0
 11
747.6141297141
 21
236.7439975067
 31
0.0
  0
LINE
  5
1C9
330
1F
100
AcDbEntity
  8
0
  6
Continuous
 62
     7
100
AcDbLine
 10
727.3326424898
 20
98.2463541111
 30
0.0
 11
727.3326424898
 21
152.2463541111
 31
0.0
  0
LINE
  5
1CA
330
1F
100
AcDbEntity
  8
0
  6
Continuous
 62
     7
100
AcDbLine
 10
747.6141297141
 20
241.7439975067
 30
0.0
 11
747.6141297141
 21
236.7439975067
 31
0.0
  0
LINE
  5
1CB
330
1F
100
AcDbEntity
  8
0
  6
Continuous
 62
     7
100
AcDbLine
 10
526.6141297141
 20
385.7439975066
 30
0.0
 11
531.6141297141
 21
385.7439975066
 31
0.0
  0
LINE
  5
1CC
330
1F
100
AcDbEntity
  8
0
  6
Continuous
 62
     7
100
AcDbLine
 10
526.6141297141
 20
385.7439975066
 30
0.0
 11
526.6141297141
 21
355.7439975066
 31
0.0
  0
LINE
  5
1CD
330
1F
100
AcDbEntity
  8
0
  6
Continuous
 62
     7
100
AcDbLine
 10
76.4390047843
 20
-253.0052540581
 30
0.0
 11
76.4390047843
 21
-327.005254058
 31
0.0
  0
LINE
  5
1CE
330
1F
100
AcDbEntity
  8
0
  6
Continuous
 62
     7
100
AcDbLine
 10
526.6141297141
 20
355.7439975066
 30
0.0
 11
531.6141297141
 21
355.7439975066
 31
0.0
  0
LINE
  5
1CF
330
1F
100
AcDbEntity
  8
0
  6
Continuous
 62
     7
100
AcDbLine
 10
526.6141297141
 20
281.7439975067
 30
0.0
 11
531.6141297141
 21
281.7439975067
 31
0.0
  0
LINE
  5
1D0
330
1F
100
AcDbEntity
  8
0
  6
Continuous
 62
     7
100
AcDbLine
 10
526.6141297141
 20
281.7439975067
 30
0.0
 11
526.6141297141
 21
261.7439975067
 31
0.0
  0
LINE
  5
1D1
330
1F
100
AcDbEntity
  8
0
  6
Continuous
 62
     7
100
AcDbLine
 10
526.6141297141
 20
261.7439975067
 30
0.0
 11
531.6141297141
 21
261.7439975067
 31
0.0
  0
LINE
  5
1D2
330
1F
100
AcDbEntity
  8
0
  6
Continuous
 62
     7
100
AcDbLine
 10
591.6141297141
 20
241.7439975067
 30
0.0
 11
591.6141297141
 21
236.7439975067
 31
0.0
  0
LINE
  5
1D3
330
1F
100
AcDbEntity
  8
0
  6
Continuous
 62
     7
100
AcDbLine
 10
76.4390047843
 20
-347.005254058
 30
0.0
 11
76.4390047843
 21
-367.005254058
 31
0.0
  0
LINE
  5
1D4
330
1F
100
AcDbEntity
  8
0
  6
Continuous
 62
     7
100
AcDbLine
 10
591.6141297141
 20
236.7439975067
 30
0.0
 11
621.6141297141
 21
236.7439975067
 31
0.0
  0
LINE
  5
1D5
330
1F
100
AcDbEntity
  8
0
  6
Continuous
 62
     7
100
AcDbLine
 10
621.6141297141
 20
241.7439975067
 30
0.0
 11
621.6141297141
 21
236.7439975067
 31
0.0
  0
LINE
  5
1D6
330
1F
100
AcDbEntity
  8
0
  6
Continuous
 62
     7
100
AcDbLine
 10
717.6141297141
 20
241.7439975067
 30
0.0
 11
717.6141297141
 21
236.7439975067
 31
0.0
  0
LINE
  5
1D7
330
1F
100
AcDbEntity
  8
0
  6
Continuous
 62
     7
100
AcDbLine
 10
717.6141297141
 20
236.7439975067
 30
0.0
 11
747.6141297141
 21
236.7439975067
 31
0.0
  0
LINE
  5
1D8
330
1F
100
AcDbEntity
  8
0
  6
Continuous
 62
     7
100
AcDbLine
 10
732.3326424897
 20
172.246354111
 30
0.0
 11
732.3326424897
 21
152.2463541111
 31
0.0
  0
LINE
  5
1D9
330
1F
100
AcDbEntity
  8
0
  6
Continuous
 62
     7
100
AcDbLine
 10
747.6141297141
 20
241.7439975067
 30
0.0
 11
747.6141297141
 21
236.7439975067
 31
0.0
  0
LINE
  5
1DA
330
1F
100
AcDbEntity
  8
0
  6
Continuous
 62
     7
100
AcDbLine
 10
812.6141297141
 20
281.7439975067
 30
0.0
 11
807.6141297141
 21
281.7439975067
 31
0.0
  0
LINE
  5
1DB
330
1F
100
AcDbEntity
  8
0
  6
Continuous
 62
     7
100
AcDbLine
 10
812.6141297141
 20
281.7439975067
 30
0.0
 11
812.6141297141
 21
261.7439975067
 31
0.0
  0
LINE
  5
1DC
330
1F
100
AcDbEntity
  8
0
  6
Continuous
 62
     7
100
AcDbLine
 10
812.6141297141
 20
261.7439975067
 30
0.0
 11
807.6141297141
 21
261.7439975067
 31
0.0
  0
LINE
  5
1DD
330
1F
100
AcDbEntity
  8
0
  6
Continuous
 62
     7
100
AcDbLine
 10
812.6141297141
 20
355.7439975066
 30
0.0
 11
807.6141297141
 21
355.7439975066
 31
0.0
  0
LINE
  5
1DE
330
1F
100
AcDbEntity
  8
0
  6
Continuous
 62
     7
100
AcDbLine
 10
669.6141297141
 20
355.7439975066
 30
0.0
 11
674.6141297141
 21
355.7439975066
 31
0.0
  0
LINE
  5
1DF
330
1F
100
AcDbEntity
  8
0
  6
Continuous
 62
     7
100
AcDbLine
 10
669.6141297141
 20
355.7439975066
 30
0.0
 11
669.6141297141
 21
335.7439975066
 31
0.0
  0
LINE
  5
1E0
330
1F
100
AcDbEntity
  8
0
  6
Continuous
 62
     7
100
AcDbLine
 10
604.3326424898
 20
98.246354111
 30
0.0
 11
604.3326424898
 21
78.246354111
 31
0.0
  0
LINE
  5
1E1
330
1F
100
AcDbEntity
  8
0
  6
Continuous
 62
     7
100
AcDbLine
 10
669.6141297141
 20
335.7439975066
 30
0.0
 11
674.6141297141
 21
335.7439975066
 31
0.0
  0
LINE
  5
1E2
330
1F
100
AcDbEntity
  8
0
  6
Continuous
 62
     7
100
AcDbLine
 10
674.6141297141
 20
355.7439975066
 30
0.0
 11
674.6141297141
 21
335.7439975066
 31
0.0
  0
LINE
  5
1E3
330
1F
100
AcDbEntity
  8
0
  6
Continuous
 62
     7
100
AcDbLine
 10
669.6141297141
 20
281.7439975067
 30
0.0
 11
674.6141297141
 21
281.7439975067
 31
0.0
  0
LINE
  5
1E4
330
1F
100
AcDbEntity
  8
0
  6
Continuous
 62
     7
100
AcDbLine
 10
669.6141297141
 20
281.7439975067
 30
0.0
 11
669.6141297141
 21
261.7439975067
 31
0.0
  0
LINE
  5
1E5
330
1F
100
AcDbEntity
  8
0
  6
Continuous
 62
     7
100
AcDbLine
 10
732.3326424898
 20
98.2463541111
 30
0.0
 11
732.3326424898
 21
78.2463541111
 31
0.0
  0
LINE
  5
1E6
330
1F
100
AcDbEntity
  8
0
  6
Continuous
 62
     7
100
AcDbLine
 10
669.6141297141
 20
261.7439975067
 30
0.0
 11
674.6141297141
 21
261.7439975067
 31
0.0
  0
LINE
  5
1E7
330
1F
100
AcDbEntity
  8
0
  6
Continuous
 62
     7
100
AcDbLine
 10
674.6141297141
 20
281.7439975067
 30
0.0
 11
674.6141297141
 21
261.7439975067
 31
0.0
  0
LINE
  5
1E8
330
1F
100
AcDbEntity
  8
0
  6
Continuous
 62
     7
100
AcDbLine
 10
699.6141297141
 20
355.7439975066
 30
0.0
 11
704.6141297141
 21
355.7439975066
 31
0.0
  0
LINE
  5
1E9
330
1F
100
AcDbEntity
  8
0
  6
Continuous
 62
     7
100
AcDbLine
 10
699.6141297141
 20
355.7439975066
 30
0.0
 11
699.6141297141
 21
335.7439975066
 31
0.0
  0
LINE
  5
1EA
330
1F
100
AcDbEntity
  8
0
  6
Continuous
 62
     7
100
AcDbLine
 10
699.6141297141
 20
335.7439975066
 30
0.0
 11
704.6141297141
 21
335.7439975066
 31
0.0
  0
LINE
  5
1EB
330
1F
100
AcDbEntity
  8
0
  6
Continuous
 62
     7
100
AcDbLine
 10
704.6141297141
 20
355.7439975066
 30
0.0
 11
704.6141297141
 21
335.7439975066
 31
0.0
  0
LINE
  5
1EC
330
1F
100
AcDbEntity
  8
0
  6
Continuous
 62
     7
100
AcDbLine
 10
699.6141297141
 20
281.7439975067
 30
0.0
 11
704.6141297141
 21
281.7439975067
 31
0.0
  0
LINE
  5
1ED
330
1F
100
AcDbEntity
  8
0
  6
Continuous
 62
     7
100
AcDbLine
 10
699.6141297141
 20
281.7439975067
 30
0.0
 11
699.6141297141
 21
261.7439975067
 31
0.0
  0
LINE
  5
1EE
330
1F
100
AcDbEntity
  8
0
  6
Continuous
 62
     7
100
AcDbLine
 10
649.3326424898
 20
58.246354111
 30
0.0
 11
649.3326424898
 21
53.246354111
 31
0.0
  0
LINE
  5
1EF
330
1F
100
AcDbEntity
  8
0
  6
Continuous
 62
     7
100
AcDbLine
 10
649.3326424898
 20
53.246354111
 30
0.0
 11
679.3326424898
 21
53.246354111
 31
0.0
  0
LINE
  5
1F0
330
1F
100
AcDbEntity
  8
0
  6
Continuous
 62
     7
100
AcDbLine
 10
679.3326424898
 20
58.246354111
 30
0.0
 11
679.3326424898
 21
53.246354111
 31
0.0
  0
LINE
  5
1F1
330
1F
100
AcDbEntity
  8
0
  6
Continuous
 62
     7
100
AcDbLine
 10
699.6141297141
 20
261.7439975067
 30
0.0
 11
704.6141297141
 21
261.7439975067
 31
0.0
  0
LINE
  5
1F2
330
1F
100
AcDbEntity
  8
0
  6
Continuous
 62
     7
100
AcDbLine
 10
704.6141297141
 20
281.7439975067
 30
0.0
 11
704.6141297141
 21
261.7439975067
 31
0.0
  0
LINE
  5
1F3
330
1F
100
AcDbEntity
  8
0
  6
Continuous
 62
     7
100
AcDbLine
 10
526.6141297141
 20
385.7439975066
 30
0.0
 11
531.6141297141
 21
385.7439975066
 31
0.0
  0
LINE
  5
1F4
330
1F
100
AcDbEntity
  8
0
  6
Continuous
 62
     7
100
AcDbLine
 10
526.6141297141
 20
385.7439975066
 30
0.0
 11
526.6141297141
 21
355.7439975066
 31
0.0
  0
LINE
  5
1F5
330
1F
100
AcDbEntity
  8
0
  6
Continuous
 62
     7
100
AcDbLine
 10
526.6141297141
 20
355.7439975066
 30
0.0
 11
531.6141297141
 21
355.7439975066
 31
0.0
  0
LINE
  5
1F6
330
1F
100
AcDbEntity
  8
0
  6
Continuous
 62
     7
100
AcDbLine
 10
526.6141297141
 20
281.7439975067
 30
0.0
 11
531.6141297141
 21
281.7439975067
 31
0.0
  0
LINE
  5
1F7
330
1F
100
AcDbEntity
  8
0
  6
Continuous
 62
     7
100
AcDbLine
 10
526.6141297141
 20
281.7439975067
 30
0.0
 11
526.6141297141
 21
261.7439975067
 31
0.0
  0
LINE
  5
1F8
330
1F
100
AcDbEntity
  8
0
  6
Continuous
 62
     7
100
AcDbLine
 10
526.6141297141
 20
261.7439975067
 30
0.0
 11
531.6141297141
 21
261.7439975067
 31
0.0
  0
LINE
  5
1F9
330
1F
100
AcDbEntity
  8
0
  6
Continuous
 62
     7
100
AcDbLine
 10
604.3326424898
 20
172.246354111
 30
0.0
 11
609.3326424898
 21
172.246354111
 31
0.0
  0
LINE
  5
1FA
330
1F
100
AcDbEntity
  8
0
  6
Continuous
 62
     7
100
AcDbLine
 10
604.3326424898
 20
172.246354111
 30
0.0
 11
604.3326424898
 21
152.246354111
 31
0.0
  0
LINE
  5
1FB
330
1F
100
AcDbEntity
  8
0
  6
Continuous
 62
     7
100
AcDbLine
 10
604.3326424898
 20
152.246354111
 30
0.0
 11
609.3326424898
 21
152.246354111
 31
0.0
  0
LINE
  5
1FC
330
1F
100
AcDbEntity
  8
0
  6
Continuous
 62
     7
100
AcDbLine
 10
591.6141297141
 20
241.7439975067
 30
0.0
 11
591.6141297141
 21
236.7439975067
 31
0.0
  0
LINE
  5
1FD
330
1F
100
AcDbEntity
  8
0
  6
Continuous
 62
     7
100
AcDbLine
 10
604.3326424898
 20
98.246354111
 30
0.0
 11
609.3326424898
 21
98.246354111
 31
0.0
  0
LINE
  5
1FE
330
1F
100
AcDbEntity
  8
0
  6
Continuous
 62
     7
100
AcDbLine
 10
604.3326424898
 20
98.246354111
 30
0.0
 11
604.3326424898
 21
78.246354111
 31
0.0
  0
LINE
  5
1FF
330
1F
100
AcDbEntity
  8
0
  6
Continuous
 62
     7
100
AcDbLine
 10
604.3326424898
 20
78.246354111
 30
0.0
 11
609.3326424898
 21
78.246354111
 31
0.0
  0
LINE
  5
200
330
1F
100
AcDbEntity
  8
0
  6
Continuous
 62
     7
100
AcDbLine
 10
591.6141297141
 20
236.7439975067
 30
0.0
 11
621.6141297141
 21
236.7439975067
 31
0.0
  0
LINE
  5
201
330
1F
100
AcDbEntity
  8
0
  6
Continuous
 62
     7
100
AcDbLine
 10
621.6141297141
 20
241.7439975067
 30
0.0
 11
621.6141297141
 21
236.7439975067
 31
0.0
  0
LINE
  5
202
330
1F
100
AcDbEntity
  8
0
  6
Continuous
 62
     7
100
AcDbLine
 10
649.3326424898
 20
58.246354111
 30
0.0
 11
649.3326424898
 21
53.246354111
 31
0.0
  0
LINE
  5
203
330
1F
100
AcDbEntity
  8
0
  6
Continuous
 62
     7
100
AcDbLine
 10
649.3326424898
 20
53.246354111
 30
0.0
 11
679.3326424898
 21
53.246354111
 31
0.0
  0
LINE
  5
204
330
1F
100
AcDbEntity
  8
0
  6
Continuous
 62
     7
100
AcDbLine
 10
679.3326424898
 20
58.246354111
 30
0.0
 11
679.3326424898
 21
53.246354111
 31
0.0
  0
LINE
  5
205
330
1F
100
AcDbEntity
  8
0
  6
Continuous
 62
     7
100
AcDbLine
 10
732.3326424898
 20
98.2463541111
 30
0.0
 11
727.3326424898
 21
98.2463541111
 31
0.0
  0
LINE
  5
206
330
1F
100
AcDbEntity
  8
0
  6
Continuous
 62
     7
100
AcDbLine
 10
732.3326424898
 20
98.2463541111
 30
0.0
 11
732.3326424898
 21
78.2463541111
 31
0.0
  0
LINE
  5
207
330
1F
100
AcDbEntity
  8
0
  6
Continuous
 62
     7
100
AcDbLine
 10
732.3326424898
 20
78.2463541111
 30
0.0
 11
727.3326424898
 21
78.2463541111
 31
0.0
  0
LINE
  5
208
330
1F
100
AcDbEntity
  8
0
  6
Continuous
 62
     7
100
AcDbLine
 10
717.6141297141
 20
241.7439975067
 30
0.0
 11
717.6141297141
 21
236.7439975067
 31
0.0
  0
LINE
  5
209
330
1F
100
AcDbEntity
  8
0
  6
Continuous
 62
     7
100
AcDbLine
 10
732.3326424897
 20
172.246354111
 30
0.0
 11
727.3326424898
 21
172.246354111
 31
0.0
  0
LINE
  5
20A
330
1F
100
AcDbEntity
  8
0
  6
Continuous
 62
     7
100
AcDbLine
 10
732.3326424897
 20
172.246354111
 30
0.0
 11
732.3326424897
 21
152.2463541111
 31
0.0
  0
LINE
  5
20B
330
1F
100
AcDbEntity
  8
0
  6
Continuous
 62
     7
100
AcDbLine
 10
732.3326424897
 20
152.2463541111
 30
0.0
 11
727.3326424898
 21
152.2463541111
 31
0.0
  0
LINE
  5
20C
330
1F
100
AcDbEntity
  8
0
  6
Continuous
 62
     7
100
AcDbLine
 10
717.6141297141
 20
236.7439975067
 30
0.0
 11
747.6141297141
 21
236.7439975067
 31
0.0
  0
LINE
  5
20D
330
1F
100
AcDbEntity
  8
0
  6
Continuous
 62
     7
100
AcDbLine
 10
747.6141297141
 20
241.7439975067
 30
0.0
 11
747.6141297141
 21
236.7439975067
 31
0.0
  0
LINE
  5
20E
330
1F
100
AcDbEntity
  8
0
  6
Continuous
 62
     7
100
AcDbLine
 10
812.6141297141
 20
281.7439975067
 30
0.0
 11
807.6141297141
 21
281.7439975067
 31
0.0
  0
LINE
  5
20F
330
1F
100
AcDbEntity
  8
0
  6
Continuous
 62
     7
100
AcDbLine
 10
812.6141297141
 20
281.7439975067
 30
0.0
 11
812.6141297141
 21
261.7439975067
 31
0.0
  0
LINE
  5
210
330
1F
100
AcDbEntity
  8
0
  6
Continuous
 62
     7
100
AcDbLine
 10
812.6141297141
 20
261.7439975067
 30
0.0
 11
807.6141297141
 21
261.7439975067
 31
0.0
  0
LINE
  5
211
330
1F
100
AcDbEntity
  8
0
  6
Continuous
 62
     7
100
AcDbLine
 10
812.6141297141
 20
385.7439975066
 30
0.0
 11
807.6141297141
 21
385.7439975066
 31
0.0
  0
LINE
  5
212
330
1F
100
AcDbEntity
  8
0
  6
Continuous
 62
     7
100
AcDbLine
 10
812.6141297141
 20
385.7439975066
 30
0.0
 11
812.6141297141
 21
355.7439975066
 31
0.0
  0
LINE
  5
213
330
1F
100
AcDbEntity
  8
0
  6
Continuous
 62
     7
100
AcDbLine
 10
812.6141297141
 20
355.7439975066
 30
0.0
 11
807.6141297141
 21
355.7439975066
 31
0.0
  0
LINE
  5
214
330
1F
100
AcDbEntity
  8
0
  6
Continuous
 62
     7
100
AcDbLine
 10
669.6141297141
 20
355.7439975066
 30
0.0
 11
674.6141297141
 21
355.7439975066
 31
0.0
  0
LINE
  5
215
330
1F
100
AcDbEntity
  8
0
  6
Continuous
 62
     7
100
AcDbLine
 10
669.6141297141
 20
355.7439975066
 30
0.0
 11
669.6141297141
 21
335.7439975066
 31
0.0
  0
LINE
  5
216
330
1F
100
AcDbEntity
  8
0
  6
Continuous
 62
     7
100
AcDbLine
 10
669.6141297141
 20
335.7439975066
 30
0.0
 11
674.6141297141
 21
335.7439975066
 31
0.0
  0
LINE
  5
217
330
1F
100
AcDbEntity
  8
0
  6
Continuous
 62
     7
100
AcDbLine
 10
674.6141297141
 20
355.7439975066
 30
0.0
 11
674.6141297141
 21
335.7439975066
 31
0.0
  0
LINE
  5
218
330
1F
100
AcDbEntity
  8
0
  6
Continuous
 62
     7
100
AcDbLine
 10
699.6141297141
 20
355.7439975066
 30
0.0
 11
704.6141297141
 21
355.7439975066
 31
0.0
  0
LINE
  5
219
330
1F
100
AcDbEntity
  8
0
  6
Continuous
 62
     7
100
AcDbLine
 10
699.6141297141
 20
355.7439975066
 30
0.0
 11
699.6141297141
 21
335.7439975066
 31
0.0
  0
LINE
  5
21A
330
1F
100
AcDbEntity
  8
0
  6
Continuous
 62
     7
100
AcDbLine
 10
699.6141297141
 20
335.7439975066
 30
0.0
 11
704.6141297141
 21
335.7439975066
 31
0.0
  0
LINE
  5
21B
330
1F
100
AcDbEntity
  8
0
  6
Continuous
 62
     7
100
AcDbLine
 10
704.6141297141
 20
355.7439975066
 30
0.0
 11
704.6141297141
 21
335.7439975066
 31
0.0
  0
LINE
  5
21C
330
1F
100
AcDbEntity
  8
0
  6
Continuous
 62
     7
100
AcDbLine
 10
669.6141297141
 20
281.7439975067
 30
0.0
 11
674.6141297141
 21
281.7439975067
 31
0.0
  0
LINE
  5
21D
330
1F
100
AcDbEntity
  8
0
  6
Continuous
 62
     7
100
AcDbLine
 10
669.6141297141
 20
281.7439975067
 30
0.0
 11
669.6141297141
 21
261.7439975067
 31
0.0
  0
LINE
  5
21E
330
1F
100
AcDbEntity
  8
0
  6
Continuous
 62
     7
100
AcDbLine
 10
669.6141297141
 20
261.7439975067
 30
0.0
 11
674.6141297141
 21
261.7439975067
 31
0.0
  0
LINE
  5
21F
330
1F
100
AcDbEntity
  8
0
  6
Continuous
 62
     7
100
AcDbLine
 10
674.6141297141
 20
281.7439975067
 30
0.0
 11
674.6141297141
 21
261.7439975067
 31
0.0
  0
LINE
  5
220
330
1F
100
AcDbEntity
  8
0
  6
Continuous
 62
     7
100
AcDbLine
 10
699.6141297141
 20
281.7439975067
 30
0.0
 11
704.6141297141
 21
281.7439975067
 31
0.0
  0
LINE
  5
221
330
1F
100
AcDbEntity
  8
0
  6
Continuous
 62
     7
100
AcDbLine
 10
699.6141297141
 20
281.7439975067
 30
0.0
 11
699.6141297141
 21
261.7439975067
 31
0.0
  0
LINE
  5
222
330
1F
100
AcDbEntity
  8
0
  6
Continuous
 62
     7
100
AcDbLine
 10
699.6141297141
 20
261.7439975067
 30
0.0
 11
704.6141297141
 21
261.7439975067
 31
0.0
  0
LINE
  5
223
330
1F
100
AcDbEntity
  8
0
  6
Continuous
 62
     7
100
AcDbLine
 10
704.6141297141
 20
281.7439975067
 30
0.0
 11
704.6141297141
 21
261.7439975067
 31
0.0
  0
LINE
  5
224
330
1F
100
AcDbEntity
  8
0
  6
Continuous
 62
     7
100
AcDbLine
 10
499.659492873
 20
19.5681499718
 30
0.0
 11
775.659492873
 21
19.5681499718
 31
0.0
  0
LINE
  5
225
330
1F
100
AcDbEntity
  8
0
  6
Continuous
 62
     7
100
AcDbLine
 10
775.659492873
 20
19.5681499718
 30
0.0
 11
775.659492873
 21
13.5681499717
 31
0.0
  0
LINE
  5
226
330
1F
100
AcDbEntity
  8
0
  6
Continuous
 62
     7
100
AcDbLine
 10
775.659492873
 20
-6.4318500283
 30
0.0
 11
775.659492873
 21
-60.4318500282
 31
0.0
  0
LINE
  5
227
330
1F
100
AcDbEntity
  8
0
  6
Continuous
 62
     7
100
AcDbLine
 10
775.659492873
 20
-80.4318500282
 30
0.0
 11
775.659492873
 21
-100.4318500282
 31
0.0
  0
LINE
  5
228
330
1F
100
AcDbEntity
  8
0
  6
Continuous
 62
     7
100
AcDbLine
 10
775.659492873
 20
-100.4318500282
 30
0.0
 11
715.659492873
 21
-100.4318500282
 31
0.0
  0
LINE
  5
229
330
1F
100
AcDbEntity
  8
0
  6
Continuous
 62
     7
100
AcDbLine
 10
685.659492873
 20
-100.4318500282
 30
0.0
 11
589.659492873
 21
-100.4318500282
 31
0.0
  0
LINE
  5
22A
330
1F
100
AcDbEntity
  8
0
  6
Continuous
 62
     7
100
AcDbLine
 10
559.659492873
 20
-100.4318500282
 30
0.0
 11
499.659492873
 21
-100.4318500282
 31
0.0
  0
LINE
  5
22B
330
1F
100
AcDbEntity
  8
0
  6
Continuous
 62
     7
100
AcDbLine
 10
499.659492873
 20
-100.4318500282
 30
0.0
 11
499.659492873
 21
-80.4318500282
 31
0.0
  0
LINE
  5
22C
330
1F
100
AcDbEntity
  8
0
  6
Continuous
 62
     7
100
AcDbLine
 10
499.659492873
 20
-60.4318500282
 30
0.0
 11
499.659492873
 21
-6.4318500283
 31
0.0
  0
LINE
  5
22D
330
1F
100
AcDbEntity
  8
0
  6
Continuous
 62
     7
100
AcDbLine
 10
516.5943785513
 20
-184.3913237915
 30
0.0
 11
651.5943785513
 21
-184.3913237915
 31
0.0
  0
LINE
  5
22E
330
1F
100
AcDbEntity
  8
0
  6
Continuous
 62
     7
100
AcDbLine
 10
499.659492873
 20
13.5681499717
 30
0.0
 11
499.659492873
 21
19.5681499718
 31
0.0
  0
LINE
  5
22F
330
1F
100
AcDbEntity
  8
0
  6
Continuous
 62
     7
100
AcDbLine
 10
651.5943785513
 20
-184.3913237915
 30
0.0
 11
651.5943785513
 21
-190.3913237916
 31
0.0
  0
LINE
  5
230
330
1F
100
AcDbEntity
  8
0
  6
Continuous
 62
     7
100
AcDbLine
 10
651.5943785513
 20
-210.3913237916
 30
0.0
 11
651.5943785513
 21
-264.3913237915
 31
0.0
  0
LINE
  5
231
330
1F
100
AcDbEntity
  8
0
  6
Continuous
 62
     7
100
AcDbLine
 10
651.5943785513
 20
-284.3913237915
 30
0.0
 11
651.5943785513
 21
-304.3913237915
 31
0.0
  0
LINE
  5
232
330
1F
100
AcDbEntity
  8
0
  6
Continuous
 62
     7
100
AcDbLine
 10
651.5943785513
 20
-304.3913237915
 30
0.0
 11
603.5943785513
 21
-304.3913237915
 31
0.0
  0
LINE
  5
233
330
1F
100
AcDbEntity
  8
0
  6
Continuous
 62
     7
100
AcDbLine
 10
563.5943785513
 20
-304.3913237915
 30
0.0
 11
516.5943785513
 21
-304.3913237915
 31
0.0
  0
LINE
  5
234
330
1F
100
AcDbEntity
  8
0
  6
Continuous
 62
     7
100
AcDbLine
 10
516.5943785513
 20
-304.3913237915
 30
0.0
 11
516.5943785513
 21
-284.3913237915
 31
0.0
  0
LINE
  5
235
330
1F
100
AcDbEntity
  8
0
  6
Continuous
 62
     7
100
AcDbLine
 10
494.659492873
 20
-60.4318500282
 30
0.0
 11
494.659492873
 21
-80.4318500282
 31
0.0
  0
LINE
  5
236
330
1F
100
AcDbEntity
  8
0
  6
Continuous
 62
     7
100
AcDbLine
 10
516.5943785513
 20
-264.3913237915
 30
0.0
 11
516.5943785513
 21
-210.3913237916
 31
0.0
  0
LINE
  5
237
330
1F
100
AcDbEntity
  8
0
  6
Continuous
 62
     7
100
AcDbLine
 10
780.659492873
 20
-60.4318500282
 30
0.0
 11
780.659492873
 21
-80.4318500282
 31
0.0
  0
LINE
  5
238
330
1F
100
AcDbEntity
  8
0
  6
Continuous
 62
     7
100
AcDbLine
 10
516.5943785513
 20
-190.3913237916
 30
0.0
 11
516.5943785513
 21
-184.3913237915
 31
0.0
  0
LINE
  5
239
330
1F
100
AcDbEntity
  8
0
  6
Continuous
 62
     7
100
AcDbLine
 10
559.659492873
 20
-100.4318500282
 30
0.0
 11
559.659492873
 21
-105.4318500282
 31
0.0
  0
LINE
  5
23A
330
1F
100
AcDbEntity
  8
0
  6
Continuous
 62
     7
100
AcDbLine
 10
559.659492873
 20
-105.4318500282
 30
0.0
 11
589.659492873
 21
-105.4318500282
 31
0.0
  0
LINE
  5
23B
330
1F
100
AcDbEntity
  8
0
  6
Continuous
 62
     7
100
AcDbLine
 10
589.659492873
 20
-100.4318500282
 30
0.0
 11
589.659492873
 21
-105.4318500282
 31
0.0
  0
LINE
  5
23C
330
1F
100
AcDbEntity
  8
0
  6
Continuous
 62
     7
100
AcDbLine
 10
685.659492873
 20
-100.4318500282
 30
0.0
 11
685.659492873
 21
-105.4318500282
 31
0.0
  0
LINE
  5
23D
330
1F
100
AcDbEntity
  8
0
  6
Continuous
 62
     7
100
AcDbLine
 10
685.659492873
 20
-105.4318500282
 30
0.0
 11
715.659492873
 21
-105.4318500282
 31
0.0
  0
LINE
  5
23E
330
1F
100
AcDbEntity
  8
0
  6
Continuous
 62
     7
100
AcDbLine
 10
715.659492873
 20
-100.4318500282
 30
0.0
 11
715.659492873
 21
-105.4318500282
 31
0.0
  0
LINE
  5
23F
330
1F
100
AcDbEntity
  8
0
  6
Continuous
 62
     7
100
AcDbLine
 10
642.659492873
 20
19.5681499718
 30
0.0
 11
637.659492873
 21
19.5681499718
 31
0.0
  0
LINE
  5
240
330
1F
100
AcDbEntity
  8
0
  6
Continuous
 62
     7
100
AcDbLine
 10
494.659492873
 20
13.5681499717
 30
0.0
 11
494.659492873
 21
-6.4318500283
 31
0.0
  0
LINE
  5
241
330
1F
100
AcDbEntity
  8
0
  6
Continuous
 62
     7
100
AcDbLine
 10
780.659492873
 20
13.5681499717
 30
0.0
 11
780.659492873
 21
-6.4318500283
 31
0.0
  0
LINE
  5
242
330
1F
100
AcDbEntity
  8
0
  6
Continuous
 62
     7
100
AcDbLine
 10
511.5943785513
 20
-190.3913237916
 30
0.0
 11
511.5943785513
 21
-210.3913237916
 31
0.0
  0
LINE
  5
243
330
1F
100
AcDbEntity
  8
0
  6
Continuous
 62
     7
100
AcDbLine
 10
494.659492873
 20
13.5681499717
 30
0.0
 11
499.659492873
 21
13.5681499717
 31
0.0
  0
LINE
  5
244
330
1F
100
AcDbEntity
  8
0
  6
Continuous
 62
     7
100
AcDbLine
 10
494.659492873
 20
-60.4318500282
 30
0.0
 11
499.659492873
 21
-60.4318500282
 31
0.0
  0
LINE
  5
245
330
1F
100
AcDbEntity
  8
0
  6
Continuous
 62
     7
100
AcDbLine
 10
494.659492873
 20
-60.4318500282
 30
0.0
 11
494.659492873
 21
-80.4318500282
 31
0.0
  0
LINE
  5
246
330
1F
100
AcDbEntity
  8
0
  6
Continuous
 62
     7
100
AcDbLine
 10
494.659492873
 20
-80.4318500282
 30
0.0
 11
499.659492873
 21
-80.4318500282
 31
0.0
  0
LINE
  5
247
330
1F
100
AcDbEntity
  8
0
  6
Continuous
 62
     7
100
AcDbLine
 10
559.659492873
 20
-100.4318500282
 30
0.0
 11
559.659492873
 21
-105.4318500282
 31
0.0
  0
LINE
  5
248
330
1F
100
AcDbEntity
  8
0
  6
Continuous
 62
     7
100
AcDbLine
 10
559.659492873
 20
-105.4318500282
 30
0.0
 11
589.659492873
 21
-105.4318500282
 31
0.0
  0
LINE
  5
249
330
1F
100
AcDbEntity
  8
0
  6
Continuous
 62
     7
100
AcDbLine
 10
656.5943785513
 20
-190.3913237916
 30
0.0
 11
656.5943785513
 21
-210.3913237916
 31
0.0
  0
LINE
  5
24A
330
1F
100
AcDbEntity
  8
0
  6
Continuous
 62
     7
100
AcDbLine
 10
511.5943785513
 20
-264.3913237915
 30
0.0
 11
511.5943785513
 21
-284.3913237915
 31
0.0
  0
LINE
  5
24B
330
1F
100
AcDbEntity
  8
0
  6
Continuous
 62
     7
100
AcDbLine
 10
656.5943785513
 20
-264.3913237915
 30
0.0
 11
656.5943785513
 21
-284.3913237915
 31
0.0
  0
LINE
  5
24C
330
1F
100
AcDbEntity
  8
0
  6
Continuous
 62
     7
100
AcDbLine
 10
563.5943785513
 20
-304.3913237915
 30
0.0
 11
563.5943785513
 21
-309.3913237915
 31
0.0
  0
LINE
  5
24D
330
1F
100
AcDbEntity
  8
0
  6
Continuous
 62
     7
100
AcDbLine
 10
563.5943785513
 20
-309.3913237915
 30
0.0
 11
603.5943785513
 21
-309.3913237915
 31
0.0
  0
LINE
  5
24E
330
1F
100
AcDbEntity
  8
0
  6
Continuous
 62
     7
100
AcDbLine
 10
603.5943785513
 20
-304.3913237915
 30
0.0
 11
603.5943785513
 21
-309.3913237915
 31
0.0
  0
LINE
  5
24F
330
1F
100
AcDbEntity
  8
0
  6
Continuous
 62
     7
100
AcDbLine
 10
511.5943785513
 20
-190.3913237916
 30
0.0
 11
516.5943785513
 21
-190.3913237916
 31
0.0
  0
LINE
  5
250
330
1F
100
AcDbEntity
  8
0
  6
Continuous
 62
     7
100
AcDbLine
 10
511.5943785513
 20
-190.3913237916
 30
0.0
 11
511.5943785513
 21
-210.3913237916
 31
0.0
  0
LINE
  5
251
330
1F
100
AcDbEntity
  8
0
  6
Continuous
 62
     7
100
AcDbLine
 10
511.5943785513
 20
-210.3913237916
 30
0.0
 11
516.5943785513
 21
-210.3913237916
 31
0.0
  0
LINE
  5
252
330
1F
100
AcDbEntity
  8
0
  6
Continuous
 62
     7
100
AcDbLine
 10
511.5943785513
 20
-264.3913237915
 30
0.0
 11
516.5943785513
 21
-264.3913237915
 31
0.0
  0
LINE
  5
253
330
1F
100
AcDbEntity
  8
0
  6
Continuous
 62
     7
100
AcDbLine
 10
511.5943785513
 20
-264.3913237915
 30
0.0
 11
511.5943785513
 21
-284.3913237915
 31
0.0
  0
LINE
  5
254
330
1F
100
AcDbEntity
  8
0
  6
Continuous
 62
     7
100
AcDbLine
 10
511.5943785513
 20
-284.3913237915
 30
0.0
 11
516.5943785513
 21
-284.3913237915
 31
0.0
  0
LINE
  5
255
330
1F
100
AcDbEntity
  8
0
  6
Continuous
 62
     7
100
AcDbLine
 10
563.5943785513
 20
-309.3913237915
 30
0.0
 11
603.5943785513
 21
-309.3913237915
 31
0.0
  0
LINE
  5
256
330
1F
100
AcDbEntity
  8
0
  6
Continuous
 62
     7
100
AcDbLine
 10
563.5943785513
 20
-309.3913237915
 30
0.0
 11
563.5943785513
 21
-304.3913237915
 31
0.0
  0
LINE
  5
257
330
1F
100
AcDbEntity
  8
0
  6
Continuous
 62
     7
100
AcDbLine
 10
603.5943785513
 20
-309.3913237915
 30
0.0
 11
603.5943785513
 21
-304.3913237915
 31
0.0
  0
LINE
  5
258
330
1F
100
AcDbEntity
  8
0
  6
Continuous
 62
     7
100
AcDbLine
 10
656.5943785513
 20
-284.3913237915
 30
0.0
 11
651.5943785513
 21
-284.3913237915
 31
0.0
  0
LINE
  5
259
330
1F
100
AcDbEntity
  8
0
  6
Continuous
 62
     7
100
AcDbLine
 10
656.5943785513
 20
-284.3913237915
 30
0.0
 11
656.5943785513
 21
-264.3913237915
 31
0.0
  0
LINE
  5
25A
330
1F
100
AcDbEntity
  8
0
  6
Continuous
 62
     7
100
AcDbLine
 10
656.5943785513
 20
-264.3913237915
 30
0.0
 11
651.5943785513
 21
-264.3913237915
 31
0.0
  0
LINE
  5
25B
330
1F
100
AcDbEntity
  8
0
  6
Continuous
 62
     7
100
AcDbLine
 10
656.5943785513
 20
-210.3913237916
 30
0.0
 11
651.5943785513
 21
-210.3913237916
 31
0.0
  0
LINE
  5
25C
330
1F
100
AcDbEntity
  8
0
  6
Continuous
 62
     7
100
AcDbLine
 10
656.5943785513
 20
-210.3913237916
 30
0.0
 11
656.5943785513
 21
-190.3913237916
 31
0.0
  0
LINE
  5
25D
330
1F
100
AcDbEntity
  8
0
  6
Continuous
 62
     7
100
AcDbLine
 10
656.5943785513
 20
-190.3913237916
 30
0.0
 11
651.5943785513
 21
-190.3913237916
 31
0.0
  0
LINE
  5
25E
330
1F
100
AcDbEntity
  8
0
  6
Continuous
 62
     7
100
AcDbLine
 10
589.659492873
 20
-100.4318500282
 30
0.0
 11
589.659492873
 21
-105.4318500282
 31
0.0
  0
LINE
  5
25F
330
1F
100
AcDbEntity
  8
0
  6
Continuous
 62
     7
100
AcDbLine
 10
685.659492873
 20
-100.4318500282
 30
0.0
 11
685.659492873
 21
-105.4318500282
 31
0.0
  0
LINE
  5
260
330
1F
100
AcDbEntity
  8
0
  6
Continuous
 62
     7
100
AcDbLine
 10
685.659492873
 20
-105.4318500282
 30
0.0
 11
715.659492873
 21
-105.4318500282
 31
0.0
  0
LINE
  5
261
330
1F
100
AcDbEntity
  8
0
  6
Continuous
 62
     7
100
AcDbLine
 10
715.659492873
 20
-100.4318500282
 30
0.0
 11
715.659492873
 21
-105.4318500282
 31
0.0
  0
LINE
  5
262
330
1F
100
AcDbEntity
  8
0
  6
Continuous
 62
     7
100
AcDbLine
 10
780.659492873
 20
-60.4318500282
 30
0.0
 11
775.659492873
 21
-60.4318500282
 31
0.0
  0
LINE
  5
263
330
1F
100
AcDbEntity
  8
0
  6
Continuous
 62
     7
100
AcDbLine
 10
780.659492873
 20
-60.4318500282
 30
0.0
 11
780.659492873
 21
-80.4318500282
 31
0.0
  0
LINE
  5
264
330
1F
100
AcDbEntity
  8
0
  6
Continuous
 62
     7
100
AcDbLine
 10
780.659492873
 20
-80.4318500282
 30
0.0
 11
775.659492873
 21
-80.4318500282
 31
0.0
  0
LINE
  5
265
330
1F
100
AcDbEntity
  8
0
  6
Continuous
 62
     7
100
AcDbLine
 10
780.659492873
 20
13.5681499717
 30
0.0
 11
775.659492873
 21
13.5681499717
 31
0.0
  0
LINE
  5
266
330
1F
100
AcDbEntity
  8
0
  6
Continuous
 62
     7
100
AcDbLine
 10
780.659492873
 20
13.5681499717
 30
0.0
 11
780.659492873
 21
-6.4318500283
 31
0.0
  0
LINE
  5
267
330
1F
100
AcDbEntity
  8
0
  6
Continuous
 62
     7
100
AcDbLine
 10
780.659492873
 20
-6.4318500283
 30
0.0
 11
775.659492873
 21
-6.4318500283
 31
0.0
  0
LINE
  5
268
330
1F
100
AcDbEntity
  8
0
  6
Continuous
 62
     7
100
AcDbLine
 10
211.3460371229
 20
-327.005254058
 30
0.0
 11
220.3460371229
 21
-327.005254058
 31
0.0
  0
LINE
  5
269
330
1F
100
AcDbEntity
  8
0
  6
Continuous
 62
     7
100
AcDbLine
 10
71.4390047843
 20
-217.0052540581
 30
0.0
 11
76.4390047843
 21
-217.0052540581
 31
0.0
  0
LINE
  5
26A
330
1F
100
AcDbEntity
  8
0
  6
Continuous
 62
     7
100
AcDbLine
 10
211.3460371229
 20
-327.005254058
 30
0.0
 11
211.3460371229
 21
-338.005254058
 31
0.0
  0
LINE
  5
26B
330
1F
100
AcDbEntity
  8
0
  6
Continuous
 62
     7
100
AcDbLine
 10
211.3460371229
 20
-338.005254058
 30
0.0
 11
220.3460371229
 21
-338.005254058
 31
0.0
  0
LINE
  5
26C
330
1F
100
AcDbEntity
  8
0
  6
Continuous
 62
     7
100
AcDbLine
 10
357.4390047843
 20
-217.0052540581
 30
0.0
 11
352.4390047843
 21
-217.0052540581
 31
0.0
  0
LINE
  5
26D
330
1F
100
AcDbEntity
  8
0
  6
Continuous
 62
     7
100
AcDbLine
 10
220.3460371229
 20
-327.005254058
 30
0.0
 11
220.3460371229
 21
-338.005254058
 31
0.0
  0
LINE
  5
26E
330
1F
100
AcDbEntity
  8
0
  6
Continuous
 62
     7
100
AcDbLine
 10
76.4390047843
 20
-367.005254058
 30
0.0
 11
136.4390047843
 21
-367.005254058
 31
0.0
  0
LINE
  5
26F
330
1F
100
AcDbEntity
  8
0
  6
Continuous
 62
     7
100
AcDbLine
 10
71.4390047843
 20
-217.0052540581
 30
0.0
 11
357.4390047843
 21
-217.0052540581
 31
0.0
  0
LINE
  5
270
330
1F
100
AcDbEntity
  8
0
  6
Continuous
 62
     7
100
AcDbLine
 10
667.659492873
 20
19.5681499718
 30
0.0
 11
672.659492873
 21
19.5681499718
 31
0.0
  0
LINE
  5
271
330
1F
100
AcDbEntity
  8
0
  6
Continuous
 62
     7
100
AcDbLine
 10
667.659492873
 20
13.5681499717
 30
0.0
 11
672.659492873
 21
13.5681499717
 31
0.0
  0
LINE
  5
272
330
1F
100
AcDbEntity
  8
0
  6
Continuous
 62
     7
100
AcDbLine
 10
667.659492873
 20
13.5681499717
 30
0.0
 11
667.659492873
 21
-6.4318500283
 31
0.0
  0
LINE
  5
273
330
1F
100
AcDbEntity
  8
0
  6
Continuous
 62
     7
100
AcDbLine
 10
667.659492873
 20
-6.4318500283
 30
0.0
 11
672.659492873
 21
-6.4318500283
 31
0.0
  0
LINE
  5
274
330
1F
100
AcDbEntity
  8
0
  6
Continuous
 62
     7
100
AcDbLine
 10
672.659492873
 20
13.5681499717
 30
0.0
 11
672.659492873
 21
-6.4318500283
 31
0.0
  0
LINE
  5
275
330
1F
100
AcDbEntity
  8
0
  6
Continuous
 62
     7
100
AcDbLine
 10
667.659492873
 20
-60.4318500282
 30
0.0
 11
672.659492873
 21
-60.4318500282
 31
0.0
  0
LINE
  5
276
330
1F
100
AcDbEntity
  8
0
  6
Continuous
 62
     7
100
AcDbLine
 10
667.659492873
 20
-60.4318500282
 30
0.0
 11
667.659492873
 21
-80.4318500282
 31
0.0
  0
LINE
  5
277
330
1F
100
AcDbEntity
  8
0
  6
Continuous
 62
     7
100
AcDbLine
 10
667.659492873
 20
-80.4318500282
 30
0.0
 11
672.659492873
 21
-80.4318500282
 31
0.0
  0
LINE
  5
278
330
1F
100
AcDbEntity
  8
0
  6
Continuous
 62
     7
100
AcDbLine
 10
672.659492873
 20
-60.4318500282
 30
0.0
 11
672.659492873
 21
-80.4318500282
 31
0.0
  0
LINE
  5
279
330
1F
100
AcDbEntity
  8
0
  6
Continuous
 62
     7
100
AcDbLine
 10
494.659492873
 20
13.5681499717
 30
0.0
 11
499.659492873
 21
13.5681499717
 31
0.0
  0
LINE
  5
27A
330
1F
100
AcDbEntity
  8
0
  6
Continuous
 62
     7
100
AcDbLine
 10
494.659492873
 20
13.5681499717
 30
0.0
 11
494.659492873
 21
-6.4318500283
 31
0.0
  0
LINE
  5
27B
330
1F
100
AcDbEntity
  8
0
  6
Continuous
 62
     7
100
AcDbLine
 10
494.659492873
 20
-6.4318500283
 30
0.0
 11
499.659492873
 21
-6.4318500283
 31
0.0
  0
LINE
  5
27C
330
1F
100
AcDbEntity
  8
0
  6
Continuous
 62
     7
100
AcDbLine
 10
494.659492873
 20
-60.4318500282
 30
0.0
 11
499.659492873
 21
-60.4318500282
 31
0.0
  0
LINE
  5
27D
330
1F
100
AcDbEntity
  8
0
  6
Continuous
 62
     7
100
AcDbLine
 10
494.659492873
 20
-60.4318500282
 30
0.0
 11
494.659492873
 21
-80.4318500282
 31
0.0
  0
LINE
  5
27E
330
1F
100
AcDbEntity
  8
0
  6
Continuous
 62
     7
100
AcDbLine
 10
494.659492873
 20
-80.4318500282
 30
0.0
 11
499.659492873
 21
-80.4318500282
 31
0.0
  0
LINE
  5
27F
330
1F
100
AcDbEntity
  8
0
  6
Continuous
 62
     7
100
AcDbLine
 10
559.659492873
 20
-105.4318500282
 30
0.0
 11
589.659492873
 21
-105.4318500282
 31
0.0
  0
LINE
  5
280
330
1F
100
AcDbEntity
  8
0
  6
Continuous
 62
     7
100
AcDbLine
 10
559.659492873
 20
-105.4318500282
 30
0.0
 11
559.659492873
 21
-100.4318500282
 31
0.0
  0
LINE
  5
281
330
1F
100
AcDbEntity
  8
0
  6
Continuous
 62
     7
100
AcDbLine
 10
589.659492873
 20
-105.4318500282
 30
0.0
 11
589.659492873
 21
-100.4318500282
 31
0.0
  0
LINE
  5
282
330
1F
100
AcDbEntity
  8
0
  6
Continuous
 62
     7
100
AcDbLine
 10
685.659492873
 20
-105.4318500282
 30
0.0
 11
715.659492873
 21
-105.4318500282
 31
0.0
  0
LINE
  5
283
330
1F
100
AcDbEntity
  8
0
  6
Continuous
 62
     7
100
AcDbLine
 10
685.659492873
 20
-105.4318500282
 30
0.0
 11
685.659492873
 21
-100.4318500282
 31
0.0
  0
LINE
  5
284
330
1F
100
AcDbEntity
  8
0
  6
Continuous
 62
     7
100
AcDbLine
 10
715.659492873
 20
-105.4318500282
 30
0.0
 11
715.659492873
 21
-100.4318500282
 31
0.0
  0
LINE
  5
285
330
1F
100
AcDbEntity
  8
0
  6
Continuous
 62
     7
100
AcDbLine
 10
775.659492873
 20
-80.4318500282
 30
0.0
 11
780.659492873
 21
-80.4318500282
 31
0.0
  0
LINE
  5
286
330
1F
100
AcDbEntity
  8
0
  6
Continuous
 62
     7
100
AcDbLine
 10
775.659492873
 20
-60.4318500282
 30
0.0
 11
780.659492873
 21
-60.4318500282
 31
0.0
  0
LINE
  5
287
330
1F
100
AcDbEntity
  8
0
  6
Continuous
 62
     7
100
AcDbLine
 10
780.659492873
 20
-80.4318500282
 30
0.0
 11
780.659492873
 21
-60.4318500282
 31
0.0
  0
LINE
  5
288
330
1F
100
AcDbEntity
  8
0
  6
Continuous
 62
     7
100
AcDbLine
 10
775.659492873
 20
-6.4318500283
 30
0.0
 11
780.659492873
 21
-6.4318500283
 31
0.0
  0
LINE
  5
289
330
1F
100
AcDbEntity
  8
0
  6
Continuous
 62
     7
100
AcDbLine
 10
775.659492873
 20
13.5681499717
 30
0.0
 11
780.659492873
 21
13.5681499717
 31
0.0
  0
LINE
  5
28A
330
1F
100
AcDbEntity
  8
0
  6
Continuous
 62
     7
100
AcDbLine
 10
780.659492873
 20
-6.4318500283
 30
0.0
 11
780.659492873
 21
13.5681499717
 31
0.0
  0
LINE
  5
28B
330
1F
100
AcDbEntity
  8
0
  6
Continuous
 62
     7
100
AcDbLine
 10
667.659492873
 20
-6.4318500283
 30
0.0
 11
672.659492873
 21
-6.4318500283
 31
0.0
  0
LINE
  5
28C
330
1F
100
AcDbEntity
  8
0
  6
Continuous
 62
     7
100
AcDbLine
 10
667.659492873
 20
-6.4318500283
 30
0.0
 11
667.659492873
 21
13.5681499717
 31
0.0
  0
LINE
  5
28D
330
1F
100
AcDbEntity
  8
0
  6
Continuous
 62
     7
100
AcDbLine
 10
667.659492873
 20
13.5681499717
 30
0.0
 11
672.659492873
 21
13.5681499717
 31
0.0
  0
LINE
  5
28E
330
1F
100
AcDbEntity
  8
0
  6
Continuous
 62
     7
100
AcDbLine
 10
672.659492873
 20
-6.4318500283
 30
0.0
 11
672.659492873
 21
13.5681499717
 31
0.0
  0
LINE
  5
28F
330
1F
100
AcDbEntity
  8
0
  6
Continuous
 62
     7
100
AcDbLine
 10
71.4390047843
 20
-217.0052540581
 30
0.0
 11
71.4390047843
 21
-223.0052540581
 31
0.0
  0
LINE
  5
290
330
1F
100
AcDbEntity
  8
0
  6
Continuous
 62
     7
100
AcDbLine
 10
166.4390047843
 20
-367.005254058
 30
0.0
 11
262.4390047843
 21
-367.005254058
 31
0.0
  0
LINE
  5
291
330
1F
100
AcDbEntity
  8
0
  6
Continuous
 62
     7
100
AcDbLine
 10
357.4390047843
 20
-217.0052540581
 30
0.0
 11
357.4390047843
 21
-223.0052540581
 31
0.0
  0
LINE
  5
292
330
1F
100
AcDbEntity
  8
0
  6
Continuous
 62
     7
100
AcDbLine
 10
292.4390047843
 20
-367.005254058
 30
0.0
 11
352.4390047843
 21
-367.005254058
 31
0.0
  0
LINE
  5
293
330
1F
100
AcDbEntity
  8
0
  6
Continuous
 62
     7
100
AcDbLine
 10
71.4390047843
 20
-223.0052540581
 30
0.0
 11
71.4390047843
 21
-253.0052540581
 31
0.0
  0
LINE
  5
294
330
1F
100
AcDbEntity
  8
0
  6
Continuous
 62
     7
100
AcDbLine
 10
352.4390047843
 20
-367.005254058
 30
0.0
 11
352.4390047843
 21
-347.005254058
 31
0.0
  0
LINE
  5
295
330
1F
100
AcDbEntity
  8
0
  6
Continuous
 62
     7
100
AcDbLine
 10
357.4390047843
 20
-223.0052540581
 30
0.0
 11
357.4390047843
 21
-253.0052540581
 31
0.0
  0
LINE
  5
296
330
1F
100
AcDbEntity
  8
0
  6
Continuous
 62
     7
100
AcDbLine
 10
352.4390047843
 20
-327.005254058
 30
0.0
 11
352.4390047843
 21
-253.0052540581
 31
0.0
  0
LINE
  5
297
330
1F
100
AcDbEntity
  8
0
  6
Continuous
 62
     7
100
AcDbLine
 10
667.659492873
 20
-80.4318500282
 30
0.0
 11
672.659492873
 21
-80.4318500282
 31
0.0
  0
LINE
  5
298
330
1F
100
AcDbEntity
  8
0
  6
Continuous
 62
     7
100
AcDbLine
 10
667.659492873
 20
-80.4318500282
 30
0.0
 11
667.659492873
 21
-60.4318500282
 31
0.0
  0
LINE
  5
299
330
1F
100
AcDbEntity
  8
0
  6
Continuous
 62
     7
100
AcDbLine
 10
667.659492873
 20
-60.4318500282
 30
0.0
 11
672.659492873
 21
-60.4318500282
 31
0.0
  0
LINE
  5
29A
330
1F
100
AcDbEntity
  8
0
  6
Continuous
 62
     7
100
AcDbLine
 10
672.659492873
 20
-80.4318500282
 30
0.0
 11
672.659492873
 21
-60.4318500282
 31
0.0
  0
LINE
  5
29B
330
1F
100
AcDbEntity
  8
0
  6
Continuous
 62
     7
100
AcDbLine
 10
71.4390047843
 20
-327.005254058
 30
0.0
 11
71.4390047843
 21
-347.005254058
 31
0.0
  0
LINE
  5
29C
330
1F
100
AcDbEntity
  8
0
  6
Continuous
 62
     7
100
AcDbLine
 10
357.4390047843
 20
-327.005254058
 30
0.0
 11
357.4390047843
 21
-347.005254058
 31
0.0
  0
LINE
  5
29D
330
1F
100
AcDbEntity
  8
0
  6
Continuous
 62
     7
100
AcDbLine
 10
136.4390047843
 20
-367.005254058
 30
0.0
 11
136.4390047843
 21
-372.005254058
 31
0.0
  0
LINE
  5
29E
330
1F
100
AcDbEntity
  8
0
  6
Continuous
 62
     7
100
AcDbLine
 10
136.4390047843
 20
-372.005254058
 30
0.0
 11
166.4390047843
 21
-372.005254058
 31
0.0
  0
LINE
  5
29F
330
1F
100
AcDbEntity
  8
0
  6
Continuous
 62
     7
100
AcDbLine
 10
166.4390047843
 20
-367.005254058
 30
0.0
 11
166.4390047843
 21
-372.005254058
 31
0.0
  0
LINE
  5
2A0
330
1F
100
AcDbEntity
  8
0
  6
Continuous
 62
     7
100
AcDbLine
 10
262.4390047843
 20
-367.005254058
 30
0.0
 11
262.4390047843
 21
-372.005254058
 31
0.0
  0
LINE
  5
2A1
330
1F
100
AcDbEntity
  8
0
  6
Continuous
 62
     7
100
AcDbLine
 10
262.4390047843
 20
-372.005254058
 30
0.0
 11
292.4390047843
 21
-372.005254058
 31
0.0
  0
LINE
  5
2A2
330
1F
100
AcDbEntity
  8
0
  6
Continuous
 62
     7
100
AcDbLine
 10
292.4390047843
 20
-367.005254058
 30
0.0
 11
292.4390047843
 21
-372.005254058
 31
0.0
  0
LINE
  5
2A3
330
1F
100
AcDbEntity
  8
0
  6
Continuous
 62
     7
100
AcDbLine
 10
219.4390047843
 20
-217.0052540581
 30
0.0
 11
214.4390047843
 21
-217.0052540581
 31
0.0
  0
LINE
  5
2A4
330
1F
100
AcDbEntity
  8
0
  6
Continuous
 62
     7
100
AcDbLine
 10
71.4390047843
 20
-223.0052540581
 30
0.0
 11
71.4390047843
 21
-253.0052540581
 31
0.0
  0
LINE
  5
2A5
330
1F
100
AcDbEntity
  8
0
  6
Continuous
 62
     7
100
AcDbLine
 10
71.4390047843
 20
-253.0052540581
 30
0.0
 11
76.4390047843
 21
-253.0052540581
 31
0.0
  0
LINE
  5
2A6
330
1F
100
AcDbEntity
  8
0
  6
Continuous
 62
     7
100
AcDbLine
 10
71.4390047843
 20
-327.005254058
 30
0.0
 11
76.4390047843
 21
-327.005254058
 31
0.0
  0
LINE
  5
2A7
330
1F
100
AcDbEntity
  8
0
  6
Continuous
 62
     7
100
AcDbLine
 10
71.4390047843
 20
-327.005254058
 30
0.0
 11
71.4390047843
 21
-347.005254058
 31
0.0
  0
LINE
  5
2A8
330
1F
100
AcDbEntity
  8
0
  6
Continuous
 62
     7
100
AcDbLine
 10
71.4390047843
 20
-347.005254058
 30
0.0
 11
76.4390047843
 21
-347.005254058
 31
0.0
  0
LINE
  5
2A9
330
1F
100
AcDbEntity
  8
0
  6
Continuous
 62
     7
100
AcDbLine
 10
136.4390047843
 20
-367.005254058
 30
0.0
 11
136.4390047843
 21
-372.005254058
 31
0.0
  0
LINE
  5
2AA
330
1F
100
AcDbEntity
  8
0
  6
Continuous
 62
     7
100
AcDbLine
 10
136.4390047843
 20
-372.005254058
 30
0.0
 11
166.4390047843
 21
-372.005254058
 31
0.0
  0
LINE
  5
2AB
330
1F
100
AcDbEntity
  8
0
  6
Continuous
 62
     7
100
AcDbLine
 10
166.4390047843
 20
-367.005254058
 30
0.0
 11
166.4390047843
 21
-372.005254058
 31
0.0
  0
LINE
  5
2AC
330
1F
100
AcDbEntity
  8
0
  6
Continuous
 62
     7
100
AcDbLine
 10
262.4390047843
 20
-367.005254058
 30
0.0
 11
262.4390047843
 21
-372.005254058
 31
0.0
  0
LINE
  5
2AD
330
1F
100
AcDbEntity
  8
0
  6
Continuous
 62
     7
100
AcDbLine
 10
262.4390047843
 20
-372.005254058
 30
0.0
 11
292.4390047843
 21
-372.005254058
 31
0.0
  0
LINE
  5
2AE
330
1F
100
AcDbEntity
  8
0
  6
Continuous
 62
     7
100
AcDbLine
 10
292.4390047843
 20
-367.005254058
 30
0.0
 11
292.4390047843
 21
-372.005254058
 31
0.0
  0
LINE
  5
2AF
330
1F
100
AcDbEntity
  8
0
  6
Continuous
 62
     7
100
AcDbLine
 10
357.4390047843
 20
-327.005254058
 30
0.0
 11
352.4390047843
 21
-327.005254058
 31
0.0
  0
LINE
  5
2B0
330
1F
100
AcDbEntity
  8
0
  6
Continuous
 62
     7
100
AcDbLine
 10
357.4390047843
 20
-327.005254058
 30
0.0
 11
357.4390047843
 21
-347.005254058
 31
0.0
  0
LINE
  5
2B1
330
1F
100
AcDbEntity
  8
0
  6
Continuous
 62
     7
100
AcDbLine
 10
357.4390047843
 20
-347.005254058
 30
0.0
 11
352.4390047843
 21
-347.005254058
 31
0.0
  0
LINE
  5
2B2
330
1F
100
AcDbEntity
  8
0
  6
Continuous
 62
     7
100
AcDbLine
 10
357.4390047843
 20
-253.0052540581
 30
0.0
 11
352.4390047843
 21
-253.0052540581
 31
0.0
  0
LINE
  5
2B3
330
1F
100
AcDbEntity
  8
0
  6
Continuous
 62
     7
100
AcDbLine
 10
214.4390047843
 20
-253.0052540581
 30
0.0
 11
219.4390047843
 21
-253.0052540581
 31
0.0
  0
LINE
  5
2B4
330
1F
100
AcDbEntity
  8
0
  6
Continuous
 62
     7
100
AcDbLine
 10
214.4390047843
 20
-253.0052540581
 30
0.0
 11
214.4390047843
 21
-273.0052540581
 31
0.0
  0
LINE
  5
2B5
330
1F
100
AcDbEntity
  8
0
  6
Continuous
 62
     7
100
AcDbLine
 10
214.4390047843
 20
-273.0052540581
 30
0.0
 11
219.4390047843
 21
-273.0052540581
 31
0.0
  0
LINE
  5
2B6
330
1F
100
AcDbEntity
  8
0
  6
Continuous
 62
     7
100
AcDbLine
 10
219.4390047843
 20
-253.0052540581
 30
0.0
 11
219.4390047843
 21
-273.0052540581
 31
0.0
  0
LINE
  5
2B7
330
1F
100
AcDbEntity
  8
0
  6
Continuous
 62
     7
100
AcDbLine
 10
214.4390047843
 20
-327.005254058
 30
0.0
 11
219.4390047843
 21
-327.005254058
 31
0.0
  0
LINE
  5
2B8
330
1F
100
AcDbEntity
  8
0
  6
Continuous
 62
     7
100
AcDbLine
 10
244.4390047843
 20
-217.0052540581
 30
0.0
 11
249.4390047843
 21
-217.0052540581
 31
0.0
  0
ENDSEC
  0
SECTION
  2
OBJECTS
  0
DICTIONARY
  5
C
330
0
100
AcDbDictionary
281
     1
  3
ACAD_GROUP
350
D
  3
ACAD_LAYOUT
350
1A
  3
ACAD_MLINESTYLE
350
17
  3
ACAD_PLOTSETTINGS
350
19
  3
ACAD_PLOTSTYLENAME
350
E
  0
DICTIONARY
  5
D
102
{ACAD_REACTORS
330
C
102
}
330
C
100
AcDbDictionary
281
     1
  0
DICTIONARY
  5
1A
102
{ACAD_REACTORS
330
C
102
}
330
C
100
AcDbDictionary
281
     1
  3
Layout1
350
1E
  3
Layout2
350
26
  3
Model
350
22
  0
DICTIONARY
  5
17
102
{ACAD_REACTORS
330
C
102
}
330
C
100
AcDbDictionary
281
     1
  3
Standard
350
18
  0
DICTIONARY
  5
19
102
{ACAD_REACTORS
330
C
102
}
330
C
100
AcDbDictionary
281
     1
  0
ACDBDICTIONARYWDFLT
  5
E
102
{ACAD_REACTORS
330
C
102
}
330
C
100
AcDbDictionary
281
     1
  3
Normal
350
F
100
AcDbDictionaryWithDefault
340
F
  0
LAYOUT
  5
1E
102
{ACAD_REACTORS
330
1A
102
}
330
1A
100
AcDbPlotSettings
  1

  2
none_device
  4

  6

 40
0.0
 41
0.0
 42
0.0
 43
0.0
 44
0.0
 45
0.0
 46
0.0
 47
0.0
 48
0.0
 49
0.0
140
0.0
141
0.0
142
1.0
143
1.0
 70
   688
 72
     0
 73
     0
 74
     5
  7

 75
    16
147
1.0
148
0.0
149
0.0
100
AcDbLayout
  1
Layout1
 70
     1
 71
     1
 10
0.0
 20
0.0
 11
420.0
 21
297.0
 12
0.0
 22
0.0
 32
0.0
 14
1.0000000000E+20
 24
1.0000000000E+20
 34
1.0000000000E+20
 15
-1.0000000000E+20
 25
-1.0000000000E+20
 35
-1.0000000000E+20
146
0.0
 13
0.0
 23
0.0
 33
0.0
 16
1.0
 26
0.0
 36
0.0
 17
0.0
 27
1.0
 37
0.0
 76
     0
330
1B
  0
LAYOUT
  5
26
102
{ACAD_REACTORS
330
1A
102
}
330
1A
100
AcDbPlotSettings
  1

  2
none_device
  4

  6

 40
0.0
 41
0.0
 42
0.0
 43
0.0
 44
0.0
 45
0.0
 46
0.0
 47
0.0
 48
0.0
 49
0.0
140
0.0
141
0.0
142
1.0
143
1.0
 70
   688
 72
     0
 73
     0
 74
     5
  7

 75
    16
147
1.0
148
0.0
149
0.0
100
AcDbLayout
  1
Layout2
 70
     1
 71
     2
 10
0.0
 20
0.0
 11
0.0
 21
0.0
 12
0.0
 22
0.0
 32
0.0
 14
0.0
 24
0.0
 34
0.0
 15
0.0
 25
0.0
 35
0.0
146
0.0
 13
0.0
 23
0.0
 33
0.0
 16
1.0
 26
0.0
 36
0.0
 17
0.0
 27
1.0
 37
0.0
 76
     0
330
23
  0
LAYOUT
  5
22
102
{ACAD_REACTORS
330
1A
102
}
330
1A
100
AcDbPlotSettings
  1

  2
none_device
  4
ANSI_A_(11.00_x_8.50_Inches)
  6

 40
6.35
 41
19.05
 42
6.35000508
 43
19.05000254
 44
279.4
 45
215.9
 46
28.5367029847
 47
67.8256229554
 48
0.0
 49
0.0
140
0.0
141
0.0
142
0.0090799797
143
1.0
 70
  1696
 72
     0
 73
     0
 74
     0
  7

 75
     0
147
0.0179189148
148
0.0
149
0.0
100
AcDbLayout
  1
Model
 70
     1
 71
     0
 10
0.0
 20
0.0
 11
420.0
 21
297.0
 12
0.0
 22
0.0
 32
0.0
 14
41.6928652706
 24
-372.005254058
 34
0.0
 15
867.2315550793
 25
554.758929353
 35
0.0
146
0.0
 13
0.0
 23
0.0
 33
0.0
 16
1.0
 26
0.0
 36
0.0
 17
0.0
 27
1.0
 37
0.0
 76
     0
330
1F
331
29
  0
MLINESTYLE
  5
18
102
{ACAD_REACTORS
330
17
102
}
330
17
100
AcDbMlineStyle
  2
Standard
 70
     0
  3

 62
   256
 51
90.0
 52
90.0
 71
     2
 49
0.5
 62
   256
  6
BYLAYER
 49
-0.5
 62
   256
  6
BYLAYER
  0
ACDBPLACEHOLDER
  5
F
102
{ACAD_REACTORS
330
E
102
}
330
E
  0
ENDSEC
  0
EOF
